<?xml version="1.0" encoding="utf-8"?>
<!-- Generator: Adobe Illustrator 22.1.0, SVG Export Plug-In . SVG Version: 6.00 Build 0)  -->
<svg version="1.1" id="Capa_1" xmlns="http://www.w3.org/2000/svg" xmlns:xlink="http://www.w3.org/1999/xlink" x="0px" y="0px"
	 viewBox="0 0 183 44.9" style="enable-background:new 0 0 183 44.9;" xml:space="preserve">
<style type="text/css">
	.st0{enable-background:new    ;}
	.st1{fill:#222222;}
	.st2{fill:url(#SVGID_1_);}
</style>
<title>logo</title>
<g class="st0">
	<path class="st1" d="M63.2,14.6L60.4,18c-1.6-1.7-3.9-2.7-6.8-2.7c-4.1,0-7,3.1-7,7.6s2.9,7.6,7,7.6c3,0,5.4-1,7-2.9l2.8,2.9
		c-2.1,2.8-5.6,4.4-10,4.4c-7,0-11.9-4.9-11.9-12.1s4.9-12.2,11.9-12.2C57.7,10.7,61.1,12.1,63.2,14.6z"/>
</g>
<g class="st0">
	<path class="st1" d="M79.8,31.9C78.1,34,75.4,35,72,35c-5.1,0-8.3-3.2-8.3-7.4c0-4.4,3.2-7.1,8.9-7.2h7.2v-0.7c0-3-1.9-4.8-5.6-4.8
		c-2.3,0-4.6,0.8-7,2.4l-2.1-3.6c3.3-2,5.7-3,10.2-3c6.1,0,9.5,3.1,9.6,8.4v15.7h-5L79.8,31.9L79.8,31.9z M79.8,26.4v-2.2h-6.4
		c-3.3,0-4.9,0.9-4.9,3.2c0,2.2,1.7,3.5,4.6,3.5C76.7,30.9,79.5,29,79.8,26.4z"/>
	<path class="st1" d="M89.7,34.8V1.5h5.1v33.3H89.7z"/>
	<path class="st1" d="M105.9,4.1c0,1.8-1.3,3.1-3,3.1s-3-1.3-3-3.1s1.3-3.1,3-3.1S105.9,2.3,105.9,4.1z M100.4,34.8V10.9h5.1v23.9
		H100.4z"/>
	<path class="st1" d="M133.3,34.8h-5.1v-4.1c-1.7,2.8-4.5,4.3-8.3,4.3c-6.8,0-11.3-5-11.3-12.3c0-7.2,4.6-12.1,11.2-12.1
		c3.8,0,6.7,1.6,8.4,4.4V1.5h5.1L133.3,34.8L133.3,34.8z M128.2,23c0-4.6-3-7.9-7.2-7.9s-7.2,3.3-7.3,7.9c0,4.5,3,7.8,7.3,7.8
		C125.2,30.7,128.2,27.5,128.2,23z"/>
</g>
<g class="st0">
	<path class="st1" d="M159.7,24.8h-17.9c0.8,3.7,3.6,6,7.3,6c2.6,0,4.9-1,6.7-2.8l2.7,2.9c-2.3,2.6-5.7,4-9.8,4
		c-7.3,0-12.1-4.9-12.1-12.1s4.9-12.1,12-12.2C156.9,10.7,160.3,16.2,159.7,24.8z M155.2,21.1c-0.2-3.9-2.7-6.2-6.6-6.2
		c-3.7,0-6.4,2.4-6.9,6.2H155.2z"/>
</g>
<g class="st0">
	<path class="st1" d="M167.3,34.8l-9.2-23.9h5.3l6.6,18.8l6.5-18.8h5.1l-9.1,23.9H167.3z"/>
</g>
<linearGradient id="SVGID_1_" gradientUnits="userSpaceOnUse" x1="33.4249" y1="759.0927" x2="-4.0414" y2="737.4633" gradientTransform="matrix(1 0 0 1 0 -722)">
	<stop  offset="0" style="stop-color:#FFA700"/>
	<stop  offset="1" style="stop-color:#FED136"/>
</linearGradient>
<path class="st2" d="M37,16L9.1,3.5c-3-1.1-6.3,0.1-7.9,2.9c-1.3,2-1.2,4.6,0.2,6.5c2.1,2.7,4.5,3.4,6.2,4.3s12.8,5.6,14.4,6.3
	C20.3,24.2,9.3,29,7.6,29.8s-4,1.6-6.2,4.3C0,36-0.1,38.6,1.2,40.6c1.6,2.8,4.9,4,7.9,2.9L37,30.9v-5.3l-4.7-2.1l4.7-2.1V16z
	 M8.5,39c0,0-2.6,0.9-3.4-1c-0.4-0.9-0.2-2.2,1.5-3.1l1-0.5l19.7-8.9l5.9,2.6L8.5,39z M27.3,21.3L7.6,12.5l-1-0.5
	c-1.7-0.9-1.8-2.2-1.5-3.1c0.8-1.9,3.4-1,3.4-1l24.7,10.8L27.3,21.3z"/>
</svg>
