<?xml version="1.0" encoding="UTF-8" standalone="no"?>
<svg
   xmlns:dc="http://purl.org/dc/elements/1.1/"
   xmlns:cc="http://creativecommons.org/ns#"
   xmlns:rdf="http://www.w3.org/1999/02/22-rdf-syntax-ns#"
   xmlns:svg="http://www.w3.org/2000/svg"
   xmlns="http://www.w3.org/2000/svg"
   xmlns:sodipodi="http://sodipodi.sourceforge.net/DTD/sodipodi-0.dtd"
   xmlns:inkscape="http://www.inkscape.org/namespaces/inkscape"
   id="Capa_1"
   data-name="Capa 1"
   viewBox="0 0 183 44.88"
   version="1.1"
   sodipodi:docname="calidev.svg"
   inkscape:version="0.92.4 5da689c313, 2019-01-14">
  <metadata
     id="metadata26">
    <rdf:RDF>
      <cc:Work
         rdf:about="">
        <dc:format>image/svg+xml</dc:format>
        <dc:type
           rdf:resource="http://purl.org/dc/dcmitype/StillImage" />
        <dc:title>logo</dc:title>
      </cc:Work>
    </rdf:RDF>
  </metadata>
  <sodipodi:namedview
     pagecolor="#ffffff"
     bordercolor="#666666"
     borderopacity="1"
     objecttolerance="10"
     gridtolerance="10"
     guidetolerance="10"
     inkscape:pageopacity="0"
     inkscape:pageshadow="2"
     inkscape:window-width="1920"
     inkscape:window-height="1024"
     id="namedview24"
     showgrid="false"
     inkscape:zoom="1.3770492"
     inkscape:cx="-32.678571"
     inkscape:cy="22.440001"
     inkscape:window-x="0"
     inkscape:window-y="28"
     inkscape:window-maximized="1"
     inkscape:current-layer="Capa_1" />
  <defs
     id="defs9">
    <style
       id="style2">.cls-1{font-size:44.91px;fill:#222;font-family:Montserrat-Regular, Montserrat;letter-spacing:-0.07em;}.cls-2{letter-spacing:-0.05em;}.cls-3{letter-spacing:-0.07em;}.cls-4{fill:url(#linear-gradient);}</style>
    <linearGradient
       id="linear-gradient"
       x1="33.44"
       y1="37.09"
       x2="-4.01"
       y2="15.47"
       gradientUnits="userSpaceOnUse">
      <stop
         offset="0"
         stop-color="#ffa700"
         id="stop4" />
      <stop
         offset="1"
         stop-color="#fed136"
         id="stop6" />
    </linearGradient>
  </defs>
  <title
     id="title11">logo</title>
  <text
     class="cls-1"
     transform="translate(39.98 34.81) scale(0.99 1)"
     id="text19">c<tspan
   class="cls-2"
   x="22.1"
   y="0"
   id="tspan13">alid</tspan>
<tspan
   class="cls-3"
   x="96.06"
   y="0"
   id="tspan15">e</tspan>
<tspan
   class="cls-2"
   x="119.32"
   y="0"
   id="tspan17">v</tspan>
</text>
  <path
     class="cls-4"
     d="M37,16,9.15,3.54A6.47,6.47,0,0,0,1.23,6.41a5.67,5.67,0,0,0,.18,6.51c2.12,2.67,4.52,3.41,6.15,4.26S20.33,22.77,22,23.48C20.33,24.19,9.31,29,7.56,29.79s-4,1.58-6.15,4.26a5.67,5.67,0,0,0-.18,6.51,6.45,6.45,0,0,0,7.91,2.87L37,30.93V25.6l-4.68-2.12L37,21.36ZM8.49,39s-2.6.94-3.4-1c-.38-.91-.22-2.17,1.46-3.07l1-.52,19.69-8.85,5.92,2.6ZM27.26,21.33,7.57,12.48l-1-.52c-1.68-.9-1.84-2.16-1.46-3.07.8-1.92,3.4-1,3.4-1L33.17,18.73Z"
     id="path21" />
</svg>
