<?xml version="1.0" encoding="UTF-8" standalone="no"?>
<!-- Created with Inkscape (http://www.inkscape.org/) -->

<svg
   xmlns:dc="http://purl.org/dc/elements/1.1/"
   xmlns:cc="http://creativecommons.org/ns#"
   xmlns:rdf="http://www.w3.org/1999/02/22-rdf-syntax-ns#"
   xmlns:svg="http://www.w3.org/2000/svg"
   xmlns="http://www.w3.org/2000/svg"
   xmlns:xlink="http://www.w3.org/1999/xlink"
   xmlns:sodipodi="http://sodipodi.sourceforge.net/DTD/sodipodi-0.dtd"
   xmlns:inkscape="http://www.inkscape.org/namespaces/inkscape"
   width="297mm"
   height="210mm"
   id="svg2"
   version="1.1"
   inkscape:version="0.92.4 5da689c313, 2019-01-14"
   sodipodi:docname="logo.svg">
  <sodipodi:namedview
     id="base"
     pagecolor="#ffffff"
     bordercolor="#666666"
     borderopacity="1.0"
     inkscape:pageopacity="0.0"
     inkscape:pageshadow="2"
     inkscape:zoom="0.35000001"
     inkscape:cx="108.7995"
     inkscape:cy="63.628033"
     inkscape:document-units="px"
     inkscape:current-layer="layer1"
     showgrid="false"
     inkscape:window-width="1440"
     inkscape:window-height="841"
     inkscape:window-x="0"
     inkscape:window-y="0"
     inkscape:window-maximized="1"
     fit-margin-top="0"
     fit-margin-left="0"
     fit-margin-right="0"
     fit-margin-bottom="0"
     inkscape:snap-global="false"
     units="mm" />
  <defs
     id="defs4">
    <inkscape:path-effect
       effect="skeletal"
       id="path-effect3254"
       is_visible="true"
       pattern="m 12.12183,7.5761441 h 1"
       copytype="single_stretched"
       prop_scale="1"
       scale_y_rel="false"
       spacing="0"
       normal_offset="0"
       tang_offset="0"
       prop_units="false"
       vertical_pattern="false"
       fuse_tolerance="0" />
    <inkscape:path-effect
       effect="spiro"
       id="path-effect3252"
       is_visible="true" />
    <inkscape:path-effect
       effect="skeletal"
       id="path-effect3248"
       is_visible="true"
       pattern="m 3.5355339,-5.555839 h 1"
       copytype="single_stretched"
       prop_scale="1"
       scale_y_rel="false"
       spacing="0"
       normal_offset="0"
       tang_offset="0"
       prop_units="false"
       vertical_pattern="false"
       fuse_tolerance="0" />
    <inkscape:path-effect
       effect="spiro"
       id="path-effect3246"
       is_visible="true" />
    <linearGradient
       id="linearGradient4065">
      <stop
         style="stop-color:#ff0029;stop-opacity:1;"
         offset="0"
         id="stop4067" />
      <stop
         id="stop4081"
         offset="0.18640558"
         style="stop-color:#e4f500;stop-opacity:1;" />
      <stop
         id="stop4079"
         offset="0.33745837"
         style="stop-color:#3deb00;stop-opacity:1;" />
      <stop
         id="stop4077"
         offset="0.45870748"
         style="stop-color:#00ced8;stop-opacity:1;" />
      <stop
         id="stop4073"
         offset="0.67142856"
         style="stop-color:#0018ff;stop-opacity:1;" />
      <stop
         style="stop-color:#ff0017;stop-opacity:1;"
         offset="1"
         id="stop4069" />
    </linearGradient>
    <inkscape:path-effect
       effect="skeletal"
       id="path-effect4309"
       is_visible="true"
       pattern="m 20.708128,10.354064 c 0,5.718392 -4.635673,10.354064 -10.354064,10.354064 C 4.6356724,20.708128 0,16.072456 0,10.354064 0,4.6356724 4.6356724,0 10.354064,0 16.072455,0 20.708128,4.6356724 20.708128,10.354064 Z"
       copytype="single_stretched"
       prop_scale="1"
       scale_y_rel="false"
       spacing="0"
       normal_offset="0"
       tang_offset="0"
       prop_units="false"
       vertical_pattern="false"
       fuse_tolerance="0" />
    <inkscape:path-effect
       effect="spiro"
       id="path-effect4307"
       is_visible="true" />
    <inkscape:path-effect
       effect="spiro"
       id="path-effect4307-9"
       is_visible="true" />
    <inkscape:path-effect
       effect="skeletal"
       id="path-effect4309-2"
       is_visible="true"
       pattern="m 20.708128,10.354064 c 0,5.718392 -4.635673,10.354064 -10.354064,10.354064 C 4.6356724,20.708128 0,16.072456 0,10.354064 0,4.6356724 4.6356724,0 10.354064,0 16.072455,0 20.708128,4.6356724 20.708128,10.354064 Z"
       copytype="single_stretched"
       prop_scale="1"
       scale_y_rel="false"
       spacing="0"
       normal_offset="0"
       tang_offset="0"
       prop_units="false"
       vertical_pattern="false"
       fuse_tolerance="0" />
    <inkscape:path-effect
       effect="spiro"
       id="path-effect4307-0"
       is_visible="true" />
    <inkscape:path-effect
       effect="skeletal"
       id="path-effect4309-9"
       is_visible="true"
       pattern="m 20.708128,10.354064 c 0,5.718392 -4.635673,10.354064 -10.354064,10.354064 C 4.6356724,20.708128 0,16.072456 0,10.354064 0,4.6356724 4.6356724,0 10.354064,0 16.072455,0 20.708128,4.6356724 20.708128,10.354064 Z"
       copytype="single_stretched"
       prop_scale="1"
       scale_y_rel="false"
       spacing="0"
       normal_offset="0"
       tang_offset="0"
       prop_units="false"
       vertical_pattern="false"
       fuse_tolerance="0" />
    <inkscape:path-effect
       effect="spiro"
       id="path-effect4307-5"
       is_visible="true" />
    <inkscape:path-effect
       effect="skeletal"
       id="path-effect4309-1"
       is_visible="true"
       pattern="m 20.708128,10.354064 c 0,5.718392 -4.635673,10.354064 -10.354064,10.354064 C 4.6356724,20.708128 0,16.072456 0,10.354064 0,4.6356724 4.6356724,0 10.354064,0 16.072455,0 20.708128,4.6356724 20.708128,10.354064 Z"
       copytype="single_stretched"
       prop_scale="1"
       scale_y_rel="false"
       spacing="0"
       normal_offset="0"
       tang_offset="0"
       prop_units="false"
       vertical_pattern="false"
       fuse_tolerance="0" />
    <radialGradient
       inkscape:collect="always"
       xlink:href="#linearGradient4065-5"
       id="radialGradient4075-4"
       cx="97.932594"
       cy="35.017021"
       fx="97.932594"
       fy="35.017021"
       r="43.923492"
       gradientTransform="matrix(1,0,0,1.0577477,0,-2.0221521)"
       gradientUnits="userSpaceOnUse" />
    <linearGradient
       id="linearGradient4065-5">
      <stop
         style="stop-color:#ff0029;stop-opacity:1;"
         offset="0"
         id="stop4067-1" />
      <stop
         id="stop4081-1"
         offset="0.18640558"
         style="stop-color:#e4f500;stop-opacity:1;" />
      <stop
         id="stop4079-1"
         offset="0.33745837"
         style="stop-color:#3deb00;stop-opacity:1;" />
      <stop
         id="stop4077-1"
         offset="0.45870748"
         style="stop-color:#00ced8;stop-opacity:1;" />
      <stop
         id="stop4073-9"
         offset="0.67142856"
         style="stop-color:#0018ff;stop-opacity:1;" />
      <stop
         style="stop-color:#ff0017;stop-opacity:1;"
         offset="1"
         id="stop4069-3" />
    </linearGradient>
    <radialGradient
       inkscape:collect="always"
       xlink:href="#linearGradient4065-5"
       id="radialGradient4101"
       cx="97.932594"
       cy="35.017021"
       fx="97.932594"
       fy="35.017021"
       r="43.923492"
       gradientTransform="matrix(1,0,0,1.0577477,0,-2.0221521)"
       gradientUnits="userSpaceOnUse" />
    <linearGradient
       id="linearGradient4103">
      <stop
         style="stop-color:#ff0029;stop-opacity:1;"
         offset="0"
         id="stop4105" />
      <stop
         id="stop4107"
         offset="0.18640558"
         style="stop-color:#e4f500;stop-opacity:1;" />
      <stop
         id="stop4109"
         offset="0.33745837"
         style="stop-color:#3deb00;stop-opacity:1;" />
      <stop
         id="stop4111"
         offset="0.45870748"
         style="stop-color:#00ced8;stop-opacity:1;" />
      <stop
         id="stop4113"
         offset="0.67142856"
         style="stop-color:#0018ff;stop-opacity:1;" />
      <stop
         style="stop-color:#ff0017;stop-opacity:1;"
         offset="1"
         id="stop4115" />
    </linearGradient>
    <inkscape:path-effect
       effect="spiro"
       id="path-effect4307-6"
       is_visible="true" />
    <inkscape:path-effect
       effect="skeletal"
       id="path-effect4309-7"
       is_visible="true"
       pattern="m 20.708128,10.354064 c 0,5.718392 -4.635673,10.354064 -10.354064,10.354064 C 4.6356724,20.708128 0,16.072456 0,10.354064 0,4.6356724 4.6356724,0 10.354064,0 16.072455,0 20.708128,4.6356724 20.708128,10.354064 Z"
       copytype="single_stretched"
       prop_scale="1"
       scale_y_rel="false"
       spacing="0"
       normal_offset="0"
       tang_offset="0"
       prop_units="false"
       vertical_pattern="false"
       fuse_tolerance="0" />
    <radialGradient
       r="43.923492"
       fy="35.017021"
       fx="97.932594"
       cy="35.017021"
       cx="97.932594"
       gradientTransform="matrix(1,0,0,1.0577477,0,-2.0221521)"
       gradientUnits="userSpaceOnUse"
       id="radialGradient4131"
       xlink:href="#linearGradient4065-5"
       inkscape:collect="always" />
  </defs>
  <metadata
     id="metadata7">
    <rdf:RDF>
      <cc:Work
         rdf:about="">
        <dc:format>image/svg+xml</dc:format>
        <dc:type
           rdf:resource="http://purl.org/dc/dcmitype/StillImage" />
        <dc:title></dc:title>
      </cc:Work>
    </rdf:RDF>
  </metadata>
  <g
     inkscape:label="Capa 1"
     inkscape:groupmode="layer"
     id="layer1"
     transform="translate(-7.0501278,681.78904)">
    <text
       xml:space="preserve"
       style="font-style:normal;font-variant:normal;font-weight:normal;font-stretch:normal;font-size:12.75428581px;line-height:0%;font-family:'Marketing Script';-inkscape-font-specification:'Marketing Script';letter-spacing:0px;word-spacing:0px;fill:#000000;fill-opacity:1;stroke:none;stroke-width:1.06285715"
       x="188.89563"
       y="44.137886"
       id="text2989"><tspan
         sodipodi:role="line"
         id="tspan2991"
         x="188.89563"
         y="44.137886"
         style="font-size:42.51428604px;line-height:1.25;stroke-width:1.06285715"> </tspan></text>
    <text
       xml:space="preserve"
       style="font-style:normal;font-variant:normal;font-weight:normal;font-stretch:normal;line-height:0%;font-family:Photonica;-inkscape-font-specification:Photonica;letter-spacing:0px;word-spacing:0px;fill:#000000;fill-opacity:1;stroke:none"
       x="838.57141"
       y="1002.3622"
       id="text3270"><tspan
         sodipodi:role="line"
         id="tspan3272"
         x="838.57141"
         y="1002.3622"
         style="font-size:40px;line-height:1.25"> </tspan></text>
    <g
       id="g3049"
       transform="matrix(1.0628571,0,0,1.0628571,29.388157,-237.16987)">
      <path
         inkscape:connector-curvature="0"
         d="m 452.45292,77.934584 h -46.30638 l 2.3071,-5.02612 c 0.87888,-1.977473 2.38946,-3.542992 4.53175,-4.696556 1.97747,-1.153503 4.0923,-1.73027 6.34446,-1.730301 h 46.47119 l 5.85009,-6.509279 h -54.29875 c -3.68038,6.2e-5 -7.6903,0.878939 -12.02977,2.636662 -5.3832,2.197285 -9.11846,5.108573 -11.20581,8.733956 l -6.0149,13.100917 h 50.17896 c 2.08732,0 3.37818,0.05509 3.87262,0.164659 1.15347,0.274534 1.73024,0.851454 1.7303,1.7303 -6e-5,0.494407 -0.21975,1.208502 -0.65916,2.142286 l -2.22471,4.861369 c -1.48315,2.362005 -4.14727,3.543023 -7.99237,3.542992 h -50.59095 l -3.37821,7.415611 h 57.67696 c 8.07474,0 14.172,-2.77396 18.29185,-8.321941 l 4.77895,-10.381865 c 0.49428,-1.098596 0.74149,-2.142255 0.74158,-3.131038 -9e-5,-3.021132 -2.69166,-4.531713 -8.0748,-4.531775"
         id="path3137-5"
         style="font-style:normal;font-variant:normal;font-weight:normal;font-stretch:normal;font-size:40px;line-height:125%;font-family:Photonica;-inkscape-font-specification:Photonica;letter-spacing:0px;word-spacing:0px;fill:#000000;fill-opacity:1;stroke:none" />
      <path
         inkscape:connector-curvature="0"
         d="m 589.32632,49.755276 h 21.58767 l 2.88386,-6.509248 h -26.5314 c -3.68041,6.1e-5 -7.66284,0.851485 -11.94738,2.55424 -5.38323,2.142347 -9.11849,4.998759 -11.20581,8.569174 l -2.55427,5.602886 h -19.11582 l -2.96622,6.426888 h 19.19818 l -17.3031,37.901984 h 15.40802 l 17.30309,-37.901984 h 25.04827 l 2.96626,-6.426888 h -25.0483 c 0.32953,-0.823877 0.90633,-2.11477 1.7303,-3.872586 v 0 c 0.98872,-1.922505 2.44439,-3.46057 4.36699,-4.614166 1.97744,-1.153472 4.03734,-1.730239 6.17966,-1.7303"
         id="path3141-7"
         style="font-style:normal;font-variant:normal;font-weight:normal;font-stretch:normal;font-size:40px;line-height:125%;font-family:Photonica;-inkscape-font-specification:Photonica;letter-spacing:0px;word-spacing:0px;fill:#000000;fill-opacity:1;stroke:none" />
      <path
         inkscape:connector-curvature="0"
         d="m 631.66694,66.646389 h 43.17534 l 2.88387,-6.344466 h -43.17534 l 7.66281,-16.808723 -16.39677,3.29582 -6.09726,13.512903 h -12.44176 l -2.88383,6.344466 h 12.44173 l -12.02975,26.366617 c -0.32959,0.933845 -0.49437,1.840176 -0.49437,2.719053 0,2.801474 1.51058,4.998701 4.53174,6.591671 2.41694,1.31831 5.16345,1.97747 8.23958,1.97747 h 49.19021 l -2.96622,-6.426856 H 625.0753 c -3.5705,3.1e-5 -5.35574,-1.318315 -5.35571,-3.954977 -3e-5,-0.659158 0.21975,-1.483097 0.65916,-2.47188 l 11.28819,-24.801098"
         id="path3143-1"
         style="font-style:normal;font-variant:normal;font-weight:normal;font-stretch:normal;font-size:40px;line-height:125%;font-family:Photonica;-inkscape-font-specification:Photonica;letter-spacing:0px;word-spacing:0px;fill:#000000;fill-opacity:1;stroke:none" />
      <path
         inkscape:connector-curvature="0"
         d="m 685.67476,104.3012 h 77.86393 l 20.18693,-44.328872 h -15.3256 l -17.2207,37.819626 h -25.04827 l 17.22067,-37.819626 h -15.32559 l -17.22068,37.819626 h -17.13831 c -3.68036,3e-5 -5.52053,-1.3458 -5.5205,-4.037399 -3e-5,-0.823909 0.19205,-1.647879 0.57677,-2.471849 l 14.33684,-31.310378 h -15.07842 l -15.07839,33.123069 c -0.3296,0.933845 -0.49438,1.840176 -0.49438,2.719053 0,2.801474 1.59297,4.9987 4.77895,6.59167 2.58172,1.26341 5.41062,1.89508 8.48675,1.89508"
         id="path3145-6"
         style="font-style:normal;font-variant:normal;font-weight:normal;font-stretch:normal;font-size:40px;line-height:125%;font-family:Photonica;-inkscape-font-specification:Photonica;letter-spacing:0px;word-spacing:0px;fill:#000000;fill-opacity:1;stroke:none" />
      <path
         inkscape:connector-curvature="0"
         d="m 846.48795,59.972328 h -54.46354 l -2.96625,6.509279 h 49.43741 c 1.48307,3.1e-5 2.74645,0.302233 3.7902,0.906331 1.26334,0.714156 1.89505,1.757815 1.89511,3.131037 -6e-5,0.714157 -0.19236,1.510643 -0.57677,2.389489 l -1.15353,2.554271 h -46.1416 c -7.58039,3.1e-5 -12.52415,2.526818 -14.83121,7.580391 l -5.85009,12.936136 c -0.21975,0.494376 -0.3296,1.153565 -0.3296,1.977473 0,4.229665 3.51557,6.344465 10.54665,6.344465 h 58.17134 L 859.0121,71.342946 c 0.3295,-0.988722 0.49428,-1.922536 0.49438,-2.801444 -10e-5,-2.801413 -1.53813,-4.998636 -4.61417,-6.59167 -2.52688,-1.318284 -5.32832,-1.977442 -8.40436,-1.977504 m -50.09657,36.913264 c -3.4057,3.1e-5 -4.86137,-1.180987 -4.36697,-3.542992 l 3.37821,-7.415609 c 0.87888,-1.922566 2.14229,-3.131037 3.7902,-3.625413 0.87888,-0.274534 2.60921,-0.411955 5.19093,-0.411986 h 35.10057 l -6.83884,14.996 h -36.2541"
         id="path3147-9"
         style="font-style:normal;font-variant:normal;font-weight:normal;font-stretch:normal;font-size:40px;line-height:125%;font-family:Photonica;-inkscape-font-specification:Photonica;letter-spacing:0px;word-spacing:0px;fill:#000000;fill-opacity:1;stroke:none" />
      <path
         inkscape:connector-curvature="0"
         d="M 914.09875,59.972328 H 872.40654 L 852.13722,104.3012 h 15.16081 l 17.22068,-37.901984 h 21.50527 c 3.73523,3.1e-5 5.60286,1.345831 5.60292,4.037368 -6e-5,0.824001 -0.19236,1.647972 -0.57676,2.47188 l -2.0599,4.531744 h 14.91361 l 2.88383,-6.344466 c 0.32954,-0.933753 0.49432,-1.840114 0.49438,-2.719052 -6e-5,-2.746476 -1.56558,-4.916215 -4.69656,-6.509248 -2.52684,-1.263348 -5.35577,-1.895052 -8.48675,-1.895114"
         id="path3149-8"
         style="font-style:normal;font-variant:normal;font-weight:normal;font-stretch:normal;font-size:40px;line-height:125%;font-family:Photonica;-inkscape-font-specification:Photonica;letter-spacing:0px;word-spacing:0px;fill:#000000;fill-opacity:1;stroke:none" />
      <path
         inkscape:connector-curvature="0"
         d="m 938.08493,88.39884 h 46.80075 c 4.22957,3.1e-5 7.49791,-1.20844 9.80507,-3.625413 1.31825,-1.373222 2.307,-2.773929 2.96625,-4.202181 l 9.3931,-20.598918 h -53.22759 c -3.57051,6.2e-5 -7.33325,0.824001 -11.28823,2.47188 -4.88882,2.032473 -8.37691,4.8614 -10.46422,8.486752 l -12.35937,27.025775 c -0.3296,4.229665 3.02116,6.344465 10.05227,6.344465 h 58.91292 l 3.29582,-7.333186 h -51.6621 c -3.40569,-0.329563 -4.9163,-1.510581 -4.53174,-3.543023 l 2.30707,-5.026151 M 955.8824,66.399216 h 35.26536 l -4.61417,10.299444 c -0.60431,1.318377 -1.73036,2.69163 -3.37821,4.11979 -1.53813,0.714126 -3.57054,1.071173 -6.09729,1.071142 h -36.00691 l 4.11976,-8.981128 c 0.87888,-1.922535 2.33452,-3.488054 4.367,-4.696556 2.08731,-1.208441 4.20211,-1.812661 6.34446,-1.812692"
         id="path3151-1"
         style="font-style:normal;font-variant:normal;font-weight:normal;font-stretch:normal;font-size:40px;line-height:125%;font-family:Photonica;-inkscape-font-specification:Photonica;letter-spacing:0px;word-spacing:0px;fill:#000000;fill-opacity:1;stroke:none" />
      <path
         d="m 156.47722,7.0420578 c 0.47425,-5.2180474 -0.1188,-9.8431698 -1.77887,-13.8753672 -0.71169,-2.134653 -1.66047,-2.490408 -2.84625,-1.0673573 C 141.65299,5.8561463 129.20074,13.446109 114.49533,14.86919 91.962598,17.003874 75.478195,15.106484 65.042075,9.1767415 62.195799,7.7536293 60.772683,6.5677178 60.77273,5.6189456 c -4.7e-5,-0.2372931 0.592918,-0.9487107 1.778894,-2.1346837 4.506479,-3.32056444 9.013008,-6.9969454 13.519594,-11.0291428 4.743652,-4.2693061 9.487366,-9.0130131 14.231153,-14.2311531 15.179809,-16.365744 23.718489,-30.241112 25.616079,-41.626102 0.71145,-4.269275 1.06723,-8.301411 1.06733,-12.0965 -1e-4,-17.077254 -6.87848,-28.580764 -20.635168,-34.510544 -3.557867,-1.66016 -8.420171,-2.49031 -14.586933,-2.49044 -10.910604,1.3e-4 -21.465366,2.84635 -31.664313,8.53868 -12.333688,6.641343 -21.939706,16.721744 -28.818085,30.241202 -9.48743,18.737783 -14.231144,36.2895 -14.2311532,52.655276 9.2e-6,18.7377208 6.4040202,33.443214 19.2120582,44.116571 11.147712,9.013044 30.359749,13.519581 57.636168,13.519581 13.04514,0 24.785826,-1.067326 35.222106,-3.20201 13.28229,-2.371854 24.90438,-8.538673 34.86632,-18.50049 1.18579,-1.185911 2.01594,-3.794966 2.49044,-7.8271322 M 84.254134,-84.748881 c 6.878314,1.24e-4 10.317506,4.03229 10.317583,12.09647 -7.7e-5,5.692572 -2.609119,12.926749 -7.827132,21.70253 -8.301568,14.231215 -20.398038,26.327684 -36.289442,36.289439 -4.743748,3.320626 -7.115601,1.185973 -7.115574,-6.40402 -2.7e-5,-10.673296 3.794942,-23.955707 11.38492,-39.847235 3.320561,-7.115469 7.827089,-12.807918 13.519597,-17.077377 5.929588,-4.506415 11.266263,-6.759683 16.010048,-6.759807"
         style="font-style:normal;font-variant:normal;font-weight:normal;font-stretch:normal;font-size:115.5977478px;line-height:125%;font-family:'Marketing Script';-inkscape-font-specification:'Marketing Script';letter-spacing:0px;word-spacing:0px;fill:#000000;fill-opacity:1;stroke:none"
         id="path3257"
         inkscape:connector-curvature="0" />
      <g
         style="fill:#000000;fill-opacity:1;fill-rule:nonzero"
         inkscape:export-ydpi="90"
         inkscape:export-xdpi="90"
         inkscape:export-filename="/home/harold/Imágenes/ehm/logo3.png"
         transform="matrix(0.64087518,0,0,0.64087518,438.61498,59.695164)"
         id="g4317-7-3">
        <path
           style="fill:#000000;fill-opacity:1;fill-rule:nonzero;stroke:none"
           d="m 103.91678,49.414944 c -1.30601,-0.729003 0.11715,-5.269385 -1.56829,-11.337344 0,0 0,-3e-6 0,-3e-6 -0.72191,-2.622146 -2.1606,-5.61327 -4.560667,-7.990659 -1.870039,-1.865579 -4.437834,-3.450525 -7.280777,-4.12901 -2.436847,-0.593524 -5.250916,-0.561693 -7.772219,0.274899 -3.034249,0.944506 -6.057391,3.333768 -7.880363,6.391284 -1.687764,2.761325 -2.466027,6.48374 -2.079831,10.063738 0.338395,3.351775 1.877592,6.876372 4.229733,9.780646 2.229635,2.773552 5.457973,5.066221 9.098135,6.560087 4.092898,1.662566 8.898168,2.234177 13.473441,1.506837 1.609428,-0.250261 3.220478,-0.670335 4.794948,-1.2463 2.80407,-1.025774 5.43048,-2.523072 7.68254,-4.356421 3.65884,-2.960545 6.50865,-6.981586 8.19272,-11.235569 1.79416,-4.498889 2.34832,-9.493503 1.79915,-14.123041 -0.67773,-5.792127 -3.14635,-11.269346 -6.53318,-15.473217 0,0 -10e-6,-4e-6 -10e-6,-4e-6 C 111.6529,9.2821805 106.43834,5.8871791 101.28675,4.0613981 94.827183,1.7548118 88.234463,1.7692255 82.944229,2.7892083 71.012156,5.0696256 64.743674,11.433279 63.123927,10.153202 62.553706,9.7025596 63.502528,-0.69316567 79.387208,-7.8371642 86.001734,-10.80233 95.044211,-12.609608 105.12058,-10.58719 c 8.06131,1.6312433 16.52649,5.7228157 23.47549,12.840935 0,2.6e-6 1e-5,8.2e-6 1e-5,8.2e-6 6.08315,6.2536433 10.73166,14.6106788 12.50336,24.3071608 1.40778,7.74326 0.90342,16.09033 -1.9248,24.12 -2.6903,7.602651 -7.4158,14.638186 -13.95537,20.132604 -4.04682,3.3887 -8.69683,6.089515 -13.75659,7.930326 -2.84005,1.033249 -5.77125,1.781602 -8.75036,2.235291 -8.499045,1.278442 -17.019949,0.06639 -24.580181,-3.233503 C 71.395486,74.820699 65.614614,70.204248 61.325279,64.439101 56.781886,58.311727 54.324573,51.085181 54.032458,43.799096 53.73862,35.914749 56.217859,28.499548 60.566425,22.631019 65.434857,16.11956 72.354683,12.228583 79.415869,10.977724 c 5.811319,-0.976713 11.345744,-0.05824 15.966709,1.999967 5.351162,2.398328 9.248742,6.20465 11.723652,10.200835 3.13352,5.082517 3.91753,10.299134 3.62744,14.358111 0,2e-6 0,3e-6 0,5e-6 -0.73053,10.005286 -6.23574,12.202692 -6.81689,11.878302 z"
           id="path4305-99-7"
           inkscape:path-effect="#path-effect4307;#path-effect4309"
           inkscape:original-d="m 63.123927,10.153202 c 0,0 70.162033,-12.6041362 68.448443,17.914299 C 129.27831,68.924003 101.75859,89.86915 82.11732,68.387107 64.460863,49.075895 64.155293,19.615427 81.075348,18.605275 97.995403,17.595122 103.91679,49.414927 103.91679,49.414927"
           inkscape:connector-curvature="0"
           sodipodi:nodetypes="csssc" />
      </g>
      <path
         sodipodi:nodetypes="cccccscccccccccccccccccccccczzzcaaaccccccccccscccc"
         d="m 336.75703,7.0420578 c 0.47418,-5.2180474 -0.1188,-9.8431698 -1.7789,-13.8753672 -0.71173,-2.134653 -1.66047,-2.490408 -2.84622,-1.0673573 -2.37204,3.3206568 -5.21827,6.4040512 -8.53871,9.2502756 -3.32075,2.6090545 -6.99713,5.0994932 -11.02914,7.4713469 -7.11572,4.2693672 -12.92678,6.4040202 -17.43316,6.4040202 -9.48757,0 -16.8403,-1.067326 -22.05829,-3.20201 -5.2182,-2.134653 -7.82722,-5.8110339 -7.82713,-11.02914283 -9e-5,-4.03213587 0.83003,-8.42005757 2.49047,-13.16382617 4.74358,-14.231092 8.89433,-26.920517 12.45225,-38.068337 3.79484,-11.147635 7.23403,-20.872251 10.31757,-29.173847 0.71142,-2.371761 1.06721,-4.743615 1.06736,-7.115592 -1.5e-4,-11.859145 -5.21823,-19.449111 -15.6543,-22.769821 -2.84634,-0.94862 -6.28552,-1.42299 -10.31757,-1.42315 -11.62222,1.6e-4 -21.82117,4.26949 -30.59699,12.808043 -2.84628,2.609177 -5.92971,5.929773 -9.25024,9.961816 -3.32066,3.795089 -6.99704,8.064426 -11.02914,12.808041 -3.55783,4.26946 -6.40409,7.70864 -8.53868,10.317571 -1.89754,2.609147 -3.08348,4.388045 -3.55779,5.336694 -0.2373,0.948834 -0.71161,1.423205 -1.42312,1.423112 -2.37191,9.3e-5 -2.7277,-1.89739 -1.06735,-5.692448 1.18588,-3.083333 5.57383,-14.231061 13.16382,-33.443215 7.58987,-19.449104 18.38185,-47.199814 32.37589,-83.252234 1.42302,-3.55758 2.13456,-6.64101 2.13465,-9.25028 -9e-5,-3.55755 -1.77899,-6.75956 -5.33666,-9.606 -1.6604,-1.18569 -5.69254,-2.01585 -12.0965,-2.49046 -6.16688,2.4e-4 -10.43625,0.35603 -12.80804,1.06732 -4.2694,1.42336 -7.70858,4.86254 -10.31757,10.3176 -2.84629,6.64141 -15.6542,46.25098 -28.10652,86.81003 -12.45232,40.559056 -15.51648,55.630953 -22.05829,76.136677 -6.54181,20.5057242 -30.51923,43.918981 -61.48436,43.073836 -30.96513,-0.845145 -24.074511,5.199796 -24.362814,11.480708 0.774474,6.929481 33.836074,8.398852 50.600174,5.733536 15.64359,-2.487176 30.50299,-10.301013 43.23045,-19.73072 15.76698,-11.6816837 26.26084,-29.171939 38.97935,-44.115156 12.12525,-14.246172 27.98784,-38.89837 35.57787,-43.40503 3.7949,-2.371731 6.87829,-3.557673 9.25027,-3.557765 2.37176,9.2e-5 3.55767,1.423204 3.55777,4.269336 -1e-4,1.423236 -0.1188,2.490562 -0.35576,3.20201 -1.8976,5.218202 -3.79509,10.43628 -5.69248,15.654266 -1.66037,5.21817 -3.43927,10.436248 -5.33666,15.654265 -6.64131,19.449293 -10.55487,32.4945033 -11.74072,39.13566292 -0.23729,1.89754448 -0.47446,3.67641168 -0.71157,5.33669388 -6e-5,1.423143 -6e-5,2.6090853 0,3.557796 -6e-5,7.3527622 4.03211,13.5196122 12.0965,18.5004892 8.30141,4.980909 21.34663,7.471347 39.13567,7.471347 3.55767,0 6.87826,-0.237293 9.96181,-0.71154 3.32044,-0.237294 6.52245,-0.592987 9.60603,-1.067358 13.28223,-2.134653 24.90433,-8.182887 34.86633,-18.144704 1.18573,-1.185911 2.01588,-3.794966 2.49044,-7.8271322"
         style="font-style:normal;font-variant:normal;font-weight:normal;font-stretch:normal;font-size:115.5977478px;line-height:125%;font-family:'Marketing Script';-inkscape-font-specification:'Marketing Script';letter-spacing:0px;word-spacing:0px;fill:#000000;stroke:none"
         id="path3259"
         inkscape:connector-curvature="0" />
      <path
         sodipodi:nodetypes="ccccccccccccccccccccccccccccccccscccccccsccccccccccccsccc"
         d="m 590.73309,7.0420578 c 0.47412,-5.2180474 -0.1188,-9.8431698 -1.7789,-13.8753672 -0.71182,-2.134653 -1.66056,-2.490408 -2.84623,-1.0673573 -4.50678,6.4040512 -11.02939,11.9779151 -19.56784,16.7216225 -7.11581,4.0321662 -12.92685,6.1668502 -17.43317,6.4040202 -9.25046,0.474371 -16.12882,-0.711541 -20.63517,-3.557796 -3.32078,-1.897452 -4.98109,-4.6250914 -4.98091,-8.1829181 -1.8e-4,-1.4230815 0.3556,-3.43914943 1.06736,-6.0482347 0.23698,-0.4743399 1.30431,-3.3205644 3.20201,-8.5387042 1.89727,-5.218016 4.74352,-12.926564 8.53867,-23.125612 7.11538,-18.737598 11.7405,-32.25718 13.8754,-40.558775 1.4229,-4.980785 2.13444,-9.487323 2.13465,-13.519613 -2.1e-4,-9.250121 -3.79518,-15.654113 -11.38493,-19.212063 -4.50672,-2.3717 -9.25042,-3.55764 -14.23115,-3.55776 -9.01323,1.2e-4 -19.09363,4.50666 -30.24117,13.519579 -7.11575,5.929772 -14.94288,14.349861 -23.48143,25.260295 -7.11568,9.013168 -10.79207,13.519705 -11.02914,13.519613 -1.18604,9.2e-5 -0.83028,-2.016007 1.06735,-6.048266 4.50639,-9.961693 6.75966,-18.618951 6.75978,-25.971836 -1.2e-4,-11.147605 -5.92977,-17.788795 -17.78892,-19.923635 -1.18606,-0.23698 -2.25339,-0.35563 -3.20201,-0.35575 -0.94886,-0.23699 -1.8976,-0.35563 -2.84622,-0.35579 -18.50062,1.6e-4 -38.18702,15.772975 -59.0593,47.318583 -4.0322,6.166912 -6.0483,7.471439 -6.04823,3.913551 -7e-5,-2.371762 2.01603,-9.250122 6.04823,-20.635143 3.32053,-9.250152 6.16676,-16.128513 8.53871,-20.635171 0.94868,-1.66019 1.42305,-3.32047 1.42311,-4.98091 -6e-5,-3.55764 -2.60912,-6.40387 -7.82714,-8.5387 -3.55785,-1.66016 -7.7086,-2.49029 -12.45228,-2.49044 -9.96182,1.5e-4 -15.77288,3.55792 -17.43316,10.67335 -6.64123,24.193065 -13.04521,47.318678 -19.21203,69.376871 -5.92965,21.821146 -14.76348,50.231623 -60.85116,51.706164 -15.2006,-3.37584 -18.3048,-2.631121 -24.54715,6.889902 -7.02652,10.717092 9.7822,13.566394 28.99192,13.219411 42.92903,-0.520414 76.08466,-30.6664853 90.78726,-54.156932 18.04917,-24.308692 31.20093,-39.953908 37.84222,-47.543963 8.53861,-10.198894 15.29838,-14.942602 20.27938,-14.231153 4.50645,0.711663 5.57378,4.388044 3.20201,11.029142 -6.87848,18.026212 -13.51967,35.103589 -19.9236,51.232164 -6.40411,15.8914655 -12.33373,31.07136 -17.78895,45.539683 -1.89754,5.455279 3.67632,8.182918 16.7216,8.182918 11.62203,0 18.38181,-2.727639 20.27941,-8.182918 1.42299,-4.506537 4.38783,-10.791942 8.89446,-18.8562754 4.50642,-8.06430263 10.55465,-17.9075036 18.14471,-29.5296636 6.16669,-9.487353 11.74056,-17.907441 16.72162,-25.260295 5.21792,-7.35267 9.96163,-13.75669 14.23115,-19.212031 6.40384,-8.064241 11.26616,-12.096377 14.58694,-12.0965 3.55761,1.23e-4 5.33648,1.779021 5.33666,5.336694 -1.8e-4,2.609147 -1.54188,6.878483 -4.62512,12.808041 -2.13484,4.269429 -4.3881,9.250337 -6.7598,14.942693 -2.37201,5.455372 -4.86245,11.622191 -7.47135,18.500521 -5.9298,16.128667 -8.89461,27.51359522 -8.89446,34.1547548 -1.5e-4,11.1477582 6.52245,19.2120612 19.56782,24.1929692 7.3526,2.609024 16.24706,3.913551 26.6834,3.913551 7.11538,0 14.46814,-0.711541 22.05832,-2.134684 13.28217,-2.134653 24.90426,-8.182887 34.8663,-18.144704 1.18569,-1.185911 2.01582,-3.794966 2.49047,-7.8271322"
         style="font-style:normal;font-variant:normal;font-weight:normal;font-stretch:normal;font-size:115.5977478px;line-height:125%;font-family:'Marketing Script';-inkscape-font-specification:'Marketing Script';letter-spacing:0px;word-spacing:0px;fill:#000000;stroke:none"
         id="path3261"
         inkscape:connector-curvature="0" />
    </g>
  </g>
</svg>
