<?xml version="1.0" encoding="UTF-8" standalone="no"?>
<svg
   xmlns:dc="http://purl.org/dc/elements/1.1/"
   xmlns:cc="http://creativecommons.org/ns#"
   xmlns:rdf="http://www.w3.org/1999/02/22-rdf-syntax-ns#"
   xmlns:svg="http://www.w3.org/2000/svg"
   xmlns="http://www.w3.org/2000/svg"
   viewBox="0 0 2406.0532 2624.24"
   height="2624.24"
   width="2406.0532"
   xml:space="preserve"
   id="svg2"
   version="1.1"><metadata
     id="metadata8"><rdf:RDF><cc:Work
         rdf:about=""><dc:format>image/svg+xml</dc:format><dc:type
           rdf:resource="http://purl.org/dc/dcmitype/StillImage" /></cc:Work></rdf:RDF></metadata><defs
     id="defs6"><clipPath
       id="clipPath22"
       clipPathUnits="userSpaceOnUse"><path
         id="path20"
         d="M 0,1968.182 H 1804.545 V 0 H 0 Z" /></clipPath></defs><g
     transform="matrix(1.3333333,0,0,-1.3333333,0,2624.24)"
     id="g10"><g
       transform="translate(387.1299,1011.8481)"
       id="g12"><path
         id="path14"
         style="fill:#e6c3dc;fill-opacity:1;fill-rule:nonzero;stroke:none"
         d="m 0,0 v 439.612 l 310.873,310.87 H 750.496 L 1061.344,439.634 V 0 l -310.848,-310.856 -439.623,-0.006 z" /></g><g
       id="g16"><g
         clip-path="url(#clipPath22)"
         id="g18"><g
           transform="translate(1600.7979,474.0508)"
           id="g24"><path
             id="path26"
             style="fill:#ffffff;fill-opacity:1;fill-rule:evenodd;stroke:none"
             d="m 0,0 c 0,110.282 -79.926,201.906 -184.996,220.101 v 0.67 h -4.049 c -11.184,1.725 -22.641,2.624 -34.307,2.624 -11.669,0 -23.128,-0.899 -34.316,-2.624 h -157.166 c -14.371,93.89 -30.77,201.294 -31.162,205.036 -7.555,70.074 -53.488,124.015 -109.027,124.015 h -246.954 c -54.906,0 -100.382,-52.656 -108.738,-121.554 -0.508,-4.176 -17.072,-112.875 -31.514,-207.497 h -258.705 v -1.256 c -113.215,-10.093 -201.971,-105.195 -201.971,-220.992 0,-122.572 99.358,-221.918 221.926,-221.918 7.467,0 14.844,0.375 22.122,1.096 h 913.312 c 7.301,-0.72 14.703,-1.096 22.193,-1.096 7.489,0 14.889,0.376 22.188,1.096 h 16.168 v 2.197 C -79.926,-201.91 0,-110.301 0,0" /></g><g
           transform="translate(902.876,1559.3228)"
           id="g28"><path
             id="path30"
             style="fill:#ffffff;fill-opacity:1;fill-rule:evenodd;stroke:none"
             d="m 0,0 c 0,11.854 -0.516,21.963 0.148,31.951 0.659,10.037 -1.865,16.498 -11.08,22.677 -19.201,12.886 -26.67,36.449 -19.812,59.359 6.515,21.861 21.883,35.128 44.666,38.295 22.74,3.185 41.033,-5.238 53.652,-24.377 C 82.984,104.554 77.604,70.921 54.787,55.157 45.455,48.739 42.119,42.18 42.967,31.548 43.744,21.991 43.15,12.286 43.15,0.905 35.82,0.565 29.268,0.17 22.75,0.021 15.979,-0.099 9.264,0 0,0" /></g><g
           transform="translate(917.8506,1089.3921)"
           id="g32"><path
             id="path34"
             style="fill:#bd70ad;fill-opacity:1;fill-rule:evenodd;stroke:none"
             d="m 0,0 c -45.91,0 -91.861,-0.777 -137.713,0.34 -19.869,0.502 -40.029,3.131 -59.271,7.902 -40.967,10.123 -66.418,43.191 -69.955,87.37 -10.059,126.185 54.132,215.195 179.503,244.608 98.577,23.164 193.715,15.07 277.147,-48.069 C 261.027,238.21 279.449,152.692 262.328,73.396 254.639,37.528 229,15.559 193.551,7.536 173.615,3.005 152.861,0.799 132.412,0.297 88.318,-0.749 44.145,0 0,0" /></g><g
           transform="translate(830.415,1429.6118)"
           id="g36"><path
             id="path38"
             style="fill:#ffffff;fill-opacity:1;fill-rule:evenodd;stroke:none"
             d="m 0,0 c 98.576,23.164 193.715,15.07 277.146,-48.068 71.317,-53.942 89.739,-139.459 72.618,-218.756 -7.69,-35.867 -33.328,-57.837 -68.778,-65.86 -19.935,-4.531 -40.689,-6.737 -61.138,-7.239 -44.094,-1.046 -88.268,-0.297 -132.412,-0.297 -45.911,0 -91.862,-0.777 -137.713,0.34 -19.869,0.502 -40.03,3.131 -59.272,7.902 -40.967,10.124 -66.418,43.191 -69.955,87.371 C -189.562,-118.423 -125.371,-29.413 0,0 m -282.521,-376.808 750.955,-0.897 c -1.633,3.174 5.804,7.967 5.896,12.943 0.572,37.09 0.318,74.187 0.197,111.283 -0.175,57.371 -12.779,112.033 -38.029,163.458 -84.719,172.725 -272.316,256.363 -457.557,204.415 -156.855,-43.955 -272.818,-190.92 -277.935,-353.121 -1.328,-42.355 -0.774,-84.76 -0.791,-127.159 0,-4.312 18.699,-7.895 17.264,-10.922" /></g><g
           transform="translate(992.9854,1264.0327)"
           id="g40"><path
             id="path42"
             style="fill:#ffffff;fill-opacity:1;fill-rule:evenodd;stroke:none"
             d="M 0,0 C -0.92,30.057 22.238,54.508 52.082,54.953 80.307,55.362 104.906,31.534 105.818,2.892 106.738,-25.772 81.947,-51.807 53.191,-52.422 24.932,-53.022 0.912,-29.335 0,0" /></g><g
           transform="translate(842.8389,1264.7466)"
           id="g44"><path
             id="path46"
             style="fill:#ffffff;fill-opacity:1;fill-rule:evenodd;stroke:none"
             d="m 0,0 c -0.205,-28.981 -23.926,-53.164 -52.238,-53.164 -28.506,-0.028 -53.662,25.674 -53.399,54.508 0.252,28.218 24.879,52.754 52.985,52.952 C -23.102,54.472 0.176,30.424 0,0" /></g><g
           transform="translate(709.6885,1074.4282)"
           id="g48"><path
             id="path50"
             style="fill:#ffffff;fill-opacity:1;fill-rule:nonzero;stroke:none"
             d="m 0,0 c 0,-49.588 -40.184,-89.766 -89.76,-89.766 -49.611,0 -89.795,40.178 -89.795,89.766 0,49.552 40.184,89.801 89.795,89.801 C -40.184,89.801 0,49.552 0,0" /></g><g
           transform="translate(1305.4014,1074.4282)"
           id="g52"><path
             id="path54"
             style="fill:#ffffff;fill-opacity:1;fill-rule:nonzero;stroke:none"
             d="m 0,0 c 0,-49.588 -40.164,-89.766 -89.758,-89.766 -49.594,0 -89.765,40.178 -89.765,89.766 0,49.552 40.171,89.801 89.765,89.801 C -40.164,89.801 0,49.552 0,0" /></g><g
           transform="translate(923.0674,1107.2339)"
           id="g56"><path
             id="path58"
             style="fill:#ffffff;fill-opacity:1;fill-rule:evenodd;stroke:none"
             d="M 0,0 C 31.492,0 56.982,25.525 56.982,56.995 H -57.012 C -57.012,25.525 -31.508,0 0,0" /></g><g
           transform="translate(764.8447,832.2676)"
           id="g60"><path
             id="path62"
             style="fill:#bd70ad;fill-opacity:1;fill-rule:nonzero;stroke:none"
             d="M 0,0 V 30.988 L 86.098,71.225 V 46.264 L 18.863,15.494 86.098,-15.305 v -24.959 z" /></g><g
           transform="translate(944.79,958.5781)"
           id="g64"><path
             id="path66"
             style="fill:#bd70ad;fill-opacity:1;fill-rule:nonzero;stroke:none"
             d="M 0,0 H 28.918 L -51.725,-200.689 H -80.459 Z" /></g><g
           transform="translate(984.6221,792.0039)"
           id="g68"><path
             id="path70"
             style="fill:#bd70ad;fill-opacity:1;fill-rule:nonzero;stroke:none"
             d="M 0,0 V 24.959 L 67.033,55.758 0,86.527 v 24.961 L 86.09,71.252 V 40.264 Z" /></g><g
           transform="translate(402.4521,632.7578)"
           id="g72"><path
             id="path74"
             style="fill:#3c5ba7;fill-opacity:1;fill-rule:nonzero;stroke:none"
             d="m 0,0 c 0,-3.9 -0.732,-7.521 -2.234,-10.928 -1.467,-3.343 -3.467,-6.299 -5.995,-8.843 -2.48,-2.489 -5.457,-4.459 -8.906,-5.973 -3.418,-1.463 -7.027,-2.213 -10.804,-2.213 -4.002,0 -7.735,0.75 -11.131,2.213 -3.459,1.514 -6.467,3.484 -9.02,5.973 -2.541,2.544 -4.57,5.5 -6.047,8.843 -1.494,3.407 -2.222,7.028 -2.222,10.928 0,3.803 0.728,7.408 2.222,10.852 1.477,3.406 3.506,6.375 6.047,8.871 2.553,2.523 5.561,4.523 9.02,6.021 3.396,1.485 7.129,2.213 11.131,2.213 3.777,0 7.386,-0.728 10.804,-2.213 3.449,-1.498 6.426,-3.498 8.906,-6.021 2.528,-2.496 4.528,-5.465 5.995,-8.871 C -0.732,7.408 0,3.803 0,0 m -112.613,-271.955 v 42.285 l 23.211,-0.34 c 5.605,0 10.849,1.153 15.664,3.465 4.814,2.318 8.988,5.385 12.515,9.238 3.534,3.83 6.344,8.256 8.383,13.262 2.039,5.018 3.086,10.313 3.086,15.84 v 143.488 h 42.836 v -143.488 h -0.285 c -0.125,-7.705 -1.174,-15.113 -3.156,-22.287 -1.987,-7.147 -4.871,-13.848 -8.495,-20.033 -3.714,-6.207 -8.117,-11.834 -13.246,-16.895 -5.117,-5.09 -10.761,-9.437 -16.968,-13.084 -6.196,-3.598 -12.862,-6.447 -19.977,-8.426 -7.135,-2.029 -14.533,-3.025 -22.203,-3.025 z" /></g><g
           transform="translate(543.9639,507.2324)"
           id="g76"><path
             id="path78"
             style="fill:#3c5ba7;fill-opacity:1;fill-rule:nonzero;stroke:none"
             d="m 0,0 c 0,6.758 -1.096,12.879 -3.293,18.357 -2.213,5.471 -5.213,10.194 -9,14.151 -3.773,3.937 -8.199,6.963 -13.307,9.055 -5.05,2.099 -10.474,3.146 -16.187,3.146 -5.758,0 -11.154,-1.047 -16.229,-3.146 -5.047,-2.092 -9.468,-5.118 -13.205,-9.055 -3.715,-3.957 -6.675,-8.68 -8.836,-14.151 C -82.188,12.879 -83.27,6.758 -83.27,0 c 0,-6.355 1.082,-12.236 3.213,-17.666 2.161,-5.443 5.121,-10.137 8.836,-14.115 3.737,-4.016 8.158,-7.168 13.205,-9.473 5.075,-2.297 10.471,-3.449 16.229,-3.449 5.713,0 11.137,1.066 16.187,3.252 5.108,2.119 9.534,5.138 13.307,9.025 3.787,3.91 6.787,8.617 9,14.145 C -1.096,-12.76 0,-6.645 0,0 m 42.246,0 c 0,-12.307 -2.211,-23.73 -6.619,-34.326 C 31.262,-44.93 25.254,-54.092 17.65,-61.824 10.076,-69.578 1.217,-75.68 -8.973,-80.133 c -10.172,-4.439 -21.172,-6.685 -32.814,-6.685 -11.588,0 -22.475,2.246 -32.629,6.685 -10.221,4.453 -19.127,10.555 -26.766,18.309 -7.634,7.732 -13.621,16.894 -18.047,27.498 -4.423,10.596 -6.605,22.019 -6.605,34.326 0,12.496 2.182,24.068 6.605,34.734 4.426,10.647 10.413,19.842 18.047,27.577 7.639,7.726 16.545,13.804 26.766,18.201 10.154,4.396 21.041,6.595 32.629,6.595 11.642,0 22.642,-2.05 32.814,-6.199 C 1.217,76.744 10.076,70.836 17.65,63.223 25.254,55.574 31.262,46.412 35.627,35.717 40.035,25.029 42.246,13.119 42.246,0" /></g><path
           id="path80"
           style="fill:#3c5ba7;fill-opacity:1;fill-rule:nonzero;stroke:none"
           d="m 651.661,423.496 h -42.24 v 164.545 h 42.24 z m 7.221,209.262 c 0,-3.901 -0.733,-7.522 -2.252,-10.928 -1.488,-3.344 -3.479,-6.299 -6.045,-8.844 -2.559,-2.488 -5.559,-4.459 -8.99,-5.972 -3.44,-1.463 -7.098,-2.213 -10.996,-2.213 -3.899,0 -7.561,0.75 -10.989,2.213 -3.427,1.513 -6.386,3.484 -8.918,5.972 -2.502,2.545 -4.494,5.5 -5.943,8.844 -1.535,3.406 -2.266,7.027 -2.266,10.928 0,3.803 0.731,7.408 2.266,10.851 1.449,3.407 3.441,6.375 5.943,8.871 2.532,2.524 5.491,4.524 8.918,6.022 3.428,1.484 7.09,2.213 10.989,2.213 3.898,0 7.556,-0.729 10.996,-2.213 3.431,-1.498 6.431,-3.498 8.99,-6.022 2.566,-2.496 4.557,-5.464 6.045,-8.871 1.519,-3.443 2.252,-7.048 2.252,-10.851" /><g
           transform="translate(725.5537,423.4961)"
           id="g82"><path
             id="path84"
             style="fill:#3c5ba7;fill-opacity:1;fill-rule:nonzero;stroke:none"
             d="m 0,0 h -41.928 v 164.545 h 10.116 l 13.853,-15.969 c 6.754,6.145 14.428,10.865 22.967,14.217 8.547,3.328 17.474,4.969 26.779,4.969 10.049,0 19.526,-1.895 28.432,-5.733 8.933,-3.845 16.699,-9.14 23.355,-15.847 6.672,-6.709 11.924,-14.541 15.762,-23.491 3.85,-8.97 5.762,-18.527 5.762,-28.656 V 0 H 63.145 v 94.035 c 0,4.291 -0.813,8.356 -2.442,12.199 -1.658,3.832 -3.898,7.225 -6.791,10.075 -2.851,2.882 -6.156,5.125 -9.984,6.771 -3.782,1.611 -7.807,2.453 -12.141,2.453 -4.396,0 -8.558,-0.842 -12.439,-2.453 -3.893,-1.646 -7.254,-3.889 -10.123,-6.771 C 6.357,113.459 4.086,110.066 2.471,106.234 0.82,102.391 0,98.326 0,94.035 Z" /></g><g
           transform="translate(940.8037,423.4961)"
           id="g86"><path
             id="path88"
             style="fill:#3c5ba7;fill-opacity:1;fill-rule:nonzero;stroke:none"
             d="m 0,0 c -10.137,0 -19.68,1.914 -28.586,5.773 -8.928,3.825 -16.721,9.106 -23.416,15.807 -6.725,6.723 -11.98,14.533 -15.822,23.447 -3.842,8.899 -5.772,18.436 -5.772,28.573 v 48.859 h -20.412 v 41.789 h 20.412 v 65.74 h 41.793 v -65.74 H 31.781 V 122.459 H -31.803 V 73.6 c 0,-4.397 0.821,-8.512 2.475,-12.371 1.625,-3.846 3.873,-7.204 6.728,-10.073 2.864,-2.863 6.25,-5.133 10.151,-6.814 C -8.553,42.652 -4.426,41.797 0,41.797 H 31.781 V 0 Z" /></g><g
           transform="translate(1132.9893,533.6328)"
           id="g90"><path
             id="path92"
             style="fill:#bd70ad;fill-opacity:1;fill-rule:nonzero;stroke:none"
             d="m 0,0 c 0,9.148 -1.676,17.701 -5.141,25.682 -3.42,7.988 -8.148,15 -14.115,20.972 -6.015,6.002 -13.021,10.752 -21.064,14.215 -8.053,3.492 -16.612,5.238 -25.739,5.238 H -88.043 V -66.035 h 21.984 c 9.127,0 17.686,1.711 25.739,5.139 8.043,3.441 15.049,8.142 21.064,14.144 5.967,5.994 10.695,13 14.115,21.043 C -1.676,-17.656 0,-9.098 0,0 m 44.102,0 c 0,-10.094 -1.315,-19.863 -3.916,-29.236 -2.61,-9.373 -6.327,-18.139 -11.133,-26.26 -4.836,-8.158 -10.547,-15.586 -17.213,-22.295 -6.645,-6.701 -14.088,-12.484 -22.274,-17.291 -8.185,-4.82 -16.986,-8.51 -26.367,-11.111 -9.359,-2.629 -19.099,-3.944 -29.258,-3.944 h -66.353 v 220.332 h 66.353 c 10.159,0 19.899,-1.308 29.258,-3.929 9.381,-2.596 18.182,-6.313 26.367,-11.141 8.186,-4.793 15.629,-10.574 22.274,-17.27 6.666,-6.701 12.377,-14.144 17.213,-22.3 4.806,-8.11 8.523,-16.86 11.133,-26.268 C 42.787,19.941 44.102,10.172 44.102,0" /></g><g
           transform="translate(1288.7842,550.2383)"
           id="g94"><path
             id="path96"
             style="fill:#bd70ad;fill-opacity:1;fill-rule:nonzero;stroke:none"
             d="m 0,0 c -1.945,0.742 -3.846,1.193 -5.77,1.385 -1.886,0.213 -3.851,0.318 -5.886,0.318 -5.754,0 -11.17,-1.047 -16.239,-3.146 -5.068,-2.092 -9.457,-5.096 -13.197,-8.991 -3.752,-3.873 -6.693,-8.574 -8.836,-14.06 -2.162,-5.479 -3.222,-11.649 -3.222,-18.512 0,-1.549 0.07,-3.281 0.226,-5.211 0.149,-1.965 0.403,-3.929 0.778,-5.929 0.345,-1.981 0.769,-3.911 1.306,-5.749 0.502,-1.843 1.152,-3.484 1.981,-4.912 z m -21.518,-86.48 c 1.647,-0.516 3.301,-0.862 4.942,-1.018 1.633,-0.133 3.265,-0.211 4.92,-0.211 4.07,0 8.051,0.543 11.832,1.703 3.767,1.117 7.324,2.729 10.652,4.799 3.338,2.143 6.299,4.709 8.922,7.713 2.594,3.012 4.742,6.375 6.383,10.072 l 30.691,-30.891 c -3.873,-5.519 -8.347,-10.509 -13.394,-14.9 -5.104,-4.404 -10.588,-8.142 -16.45,-11.219 -5.894,-3.066 -12.087,-5.4 -18.625,-7.004 -6.468,-1.589 -13.162,-2.388 -20.011,-2.388 -11.58,0 -22.465,2.162 -32.672,6.474 -10.18,4.284 -19.108,10.291 -26.727,17.975 -7.629,7.678 -13.636,16.816 -18.041,27.428 -4.424,10.603 -6.609,22.252 -6.609,34.941 0,13.014 2.185,24.902 6.609,35.625 4.405,10.774 10.412,19.942 18.041,27.52 7.619,7.556 16.547,13.472 26.727,17.664 10.207,4.207 21.092,6.299 32.672,6.299 6.849,0 13.564,-0.813 20.088,-2.44 6.56,-1.66 12.816,-4 18.675,-7.09 5.911,-3.066 11.411,-6.842 16.528,-11.281 5.117,-4.453 9.621,-9.437 13.523,-14.986 z" /></g><g
           transform="translate(1411.5459,423.4961)"
           id="g98"><path
             id="path100"
             style="fill:#bd70ad;fill-opacity:1;fill-rule:nonzero;stroke:none"
             d="m 0,0 -62.699,164.545 h 47.791 L 21.045,61.936 56.855,164.545 h 47.94 L 42.08,0 Z" /></g><g
           transform="translate(397.6572,307.0898)"
           id="g102"><path
             id="path104"
             style="fill:#3c5ba7;fill-opacity:1;fill-rule:nonzero;stroke:none"
             d="m 0,0 14.377,67.803 h 4.73 L 5.705,4.451 H 34.506 L 33.438,0 Z" /></g><g
           transform="translate(465.6924,354.3008)"
           id="g106"><path
             id="path108"
             style="fill:#3c5ba7;fill-opacity:1;fill-rule:nonzero;stroke:none"
             d="m 0,0 c -4.051,0 -7.814,-1.785 -11.293,-5.355 -3.478,-3.573 -5.99,-8.342 -7.535,-14.309 h 2.271 c 15.985,0 23.977,4.174 23.977,12.521 0,2.073 -0.672,3.782 -2.018,5.125 C 4.059,-0.672 2.256,0 0,0 m -7.514,-48.139 c -5.347,0 -9.521,1.694 -12.521,5.078 -2.998,3.385 -4.498,8.108 -4.498,14.168 0,5.596 1.097,10.961 3.293,16.092 2.195,5.133 5.217,9.215 9.066,12.244 3.85,3.03 8.094,4.545 12.731,4.545 3.525,0 6.338,-0.943 8.441,-2.828 2.102,-1.887 3.152,-4.453 3.152,-7.699 0,-5.596 -2.527,-9.863 -7.582,-12.801 -5.054,-2.937 -12.56,-4.404 -22.515,-4.404 h -1.532 c -0.185,-1.361 -0.277,-2.877 -0.277,-4.545 0,-5.102 1.143,-8.99 3.432,-11.664 2.287,-2.676 5.58,-4.012 9.879,-4.012 4.08,0 8.347,1.129 12.799,3.385 v -4.359 c -4.329,-2.133 -8.952,-3.2 -13.868,-3.2" /></g><g
           transform="translate(498.2959,310.3359)"
           id="g110"><path
             id="path112"
             style="fill:#3c5ba7;fill-opacity:1;fill-rule:nonzero;stroke:none"
             d="m 0,0 c 2.752,0 5.496,0.957 8.232,2.875 2.735,1.916 5.194,4.482 7.373,7.699 2.18,3.215 3.842,6.77 4.987,10.666 1.142,3.897 1.715,7.19 1.715,9.879 0,2.442 -0.403,4.629 -1.205,6.563 -0.805,1.931 -1.995,3.461 -3.573,4.589 -1.576,1.129 -3.539,1.694 -5.888,1.694 -3.834,0 -7.297,-1.268 -10.389,-3.803 C -1.84,37.627 -4.375,33.832 -6.354,28.777 -8.332,23.721 -9.322,18.689 -9.322,13.682 -9.322,8.98 -8.549,5.525 -7.004,3.316 -5.457,1.105 -3.123,0 0,0 m 11.547,47.953 c 7.174,0 11.486,-3.385 12.939,-10.156 h 0.28 l 2.736,9.367 h 3.709 L 20.592,-3.246 H 16.787 L 18.875,9.461 H 18.596 C 16,5.07 13.107,1.699 9.924,-0.65 6.74,-3 3.076,-4.174 -1.066,-4.174 c -8.69,0 -13.034,5.781 -13.034,17.344 0,6.092 1.161,11.904 3.479,17.439 2.318,5.534 5.418,9.809 9.299,12.823 3.879,3.013 8.17,4.521 12.869,4.521" /></g><g
           transform="translate(565.0771,358.3828)"
           id="g114"><path
             id="path116"
             style="fill:#3c5ba7;fill-opacity:1;fill-rule:nonzero;stroke:none"
             d="M 0,0 C 2.135,0 4.035,-0.217 5.705,-0.65 L 4.73,-4.963 c -1.453,0.463 -3.199,0.695 -5.24,0.695 -2.906,0 -5.674,-0.99 -8.301,-2.968 -2.628,-1.979 -4.994,-4.948 -7.095,-8.905 -2.104,-3.957 -3.649,-8.238 -4.639,-12.845 l -4.637,-22.307 h -4.545 l 10.713,50.41 h 3.711 l -1.345,-9.461 h 0.279 c 2.256,2.907 4.156,5.002 5.703,6.285 1.547,1.284 3.191,2.28 4.939,2.991 C -3.98,-0.357 -2.07,0 0,0" /></g><g
           transform="translate(602.3174,307.0898)"
           id="g118"><path
             id="path120"
             style="fill:#3c5ba7;fill-opacity:1;fill-rule:nonzero;stroke:none"
             d="m 0,0 6.91,32.092 c 0.651,2.844 0.975,5.256 0.975,7.234 0,2.475 -0.672,4.406 -2.018,5.799 -1.344,1.391 -3.424,2.086 -6.236,2.086 -3.465,0 -6.719,-1.037 -9.764,-3.107 -3.045,-2.073 -5.611,-4.971 -7.697,-8.696 -2.088,-3.726 -3.688,-8.154 -4.801,-13.287 L -27.361,0 h -4.545 l 10.713,50.41 h 3.802 l -1.714,-10.248 h 0.277 c 5.07,7.358 11.502,11.037 19.293,11.037 4.019,0 7.033,-0.99 9.043,-2.969 2.01,-1.978 3.015,-4.822 3.015,-8.533 0,-2.164 -0.371,-4.976 -1.113,-8.439 L 4.545,0 Z" /></g><g
           transform="translate(636.1279,370.4395)"
           id="g122"><path
             id="path124"
             style="fill:#3c5ba7;fill-opacity:1;fill-rule:nonzero;stroke:none"
             d="M 0,0 C 0,1.701 0.34,3.061 1.02,4.082 1.699,5.102 2.627,5.611 3.803,5.611 5.564,5.611 6.445,4.5 6.445,2.273 6.445,0.51 6.105,-0.881 5.426,-1.9 4.744,-2.922 3.863,-3.432 2.781,-3.432 1.885,-3.432 1.197,-3.131 0.719,-2.527 0.238,-1.924 0,-1.082 0,0 m -8.164,-63.35 h -4.545 l 10.715,50.411 h 4.451 z" /></g><g
           transform="translate(677.3564,307.0898)"
           id="g126"><path
             id="path128"
             style="fill:#3c5ba7;fill-opacity:1;fill-rule:nonzero;stroke:none"
             d="m 0,0 6.91,32.092 c 0.649,2.844 0.973,5.256 0.973,7.234 0,2.475 -0.672,4.406 -2.018,5.799 -1.344,1.391 -3.424,2.086 -6.236,2.086 -3.463,0 -6.719,-1.037 -9.764,-3.107 -3.045,-2.073 -5.611,-4.971 -7.697,-8.696 -2.088,-3.726 -3.688,-8.154 -4.801,-13.287 L -27.363,0 h -4.545 l 10.713,50.41 h 3.802 l -1.714,-10.248 h 0.277 c 5.07,7.358 11.502,11.037 19.293,11.037 4.019,0 7.033,-0.99 9.043,-2.969 2.01,-1.978 3.015,-4.822 3.015,-8.533 0,-2.164 -0.371,-4.976 -1.113,-8.439 L 4.545,0 Z" /></g><g
           transform="translate(708.1494,340.0625)"
           id="g130"><path
             id="path132"
             style="fill:#3c5ba7;fill-opacity:1;fill-rule:nonzero;stroke:none"
             d="m 0,0 c 0,-3.463 0.904,-6.09 2.713,-7.883 1.81,-1.795 4.351,-2.689 7.631,-2.689 2.719,0 5.099,0.57 7.14,1.715 2.041,1.144 3.625,2.906 4.754,5.287 1.129,2.381 1.694,4.992 1.694,7.838 0,3.214 -0.868,5.711 -2.598,7.49 -1.732,1.777 -4.158,2.666 -7.281,2.666 -2.875,0 -5.365,-0.666 -7.467,-1.994 C 4.484,11.1 2.859,9.307 1.717,7.051 0.572,4.793 0,2.443 0,0 m -12.566,-42.572 c 0,-3.123 1.252,-5.442 3.755,-6.957 2.504,-1.516 5.967,-2.274 10.389,-2.274 6.276,0 11.176,1.153 14.701,3.455 3.524,2.305 5.287,5.467 5.287,9.485 0,2.629 -0.966,4.646 -2.898,6.052 -1.934,1.407 -5.311,2.295 -10.135,2.666 l -7.42,0.696 c -4.853,-1.391 -8.347,-3.16 -10.48,-5.309 -2.133,-2.148 -3.199,-4.754 -3.199,-7.814 M 37.797,17.437 37.01,13.775 25.74,13.264 c 0.803,-0.866 1.477,-2.164 2.018,-3.895 0.541,-1.732 0.81,-3.494 0.81,-5.287 0,-3.371 -0.841,-6.562 -2.527,-9.576 -1.686,-3.016 -3.973,-5.264 -6.863,-6.748 -2.891,-1.485 -6.192,-2.227 -9.903,-2.227 -1.947,0 -3.136,0.139 -3.57,0.418 -2.475,-1.021 -4.391,-2.15 -5.75,-3.386 -1.361,-1.237 -2.041,-2.489 -2.041,-3.756 0,-1.268 0.486,-2.266 1.461,-2.993 0.975,-0.726 2.729,-1.212 5.264,-1.46 l 5.611,-0.51 c 10.697,-0.959 16.047,-5.039 16.047,-12.242 0,-3.463 -1.006,-6.518 -3.016,-9.161 -2.01,-2.642 -4.9,-4.675 -8.672,-6.097 -3.771,-1.422 -8.271,-2.135 -13.496,-2.135 -5.75,0 -10.256,1.113 -13.517,3.34 -3.262,2.226 -4.893,5.365 -4.893,9.414 0,7.297 4.776,12.459 14.33,15.49 -2.412,1.299 -3.617,3.199 -3.617,5.705 0,3.803 2.951,6.924 8.857,9.367 -2.195,1.114 -3.904,2.745 -5.125,4.893 -1.22,2.148 -1.832,4.584 -1.832,7.305 0,3.431 0.829,6.586 2.483,9.461 1.652,2.875 3.941,5.13 6.863,6.771 2.922,1.637 6.113,2.457 9.576,2.457 2.133,0 4.407,-0.324 6.819,-0.975 z" /></g><g
           transform="translate(784.0693,370.4395)"
           id="g134"><path
             id="path136"
             style="fill:#3c5ba7;fill-opacity:1;fill-rule:nonzero;stroke:none"
             d="M 0,0 C 0,1.701 0.34,3.061 1.02,4.082 1.699,5.102 2.627,5.611 3.803,5.611 5.564,5.611 6.445,4.5 6.445,2.273 6.445,0.51 6.105,-0.881 5.426,-1.9 4.744,-2.922 3.863,-3.432 2.781,-3.432 1.885,-3.432 1.197,-3.131 0.719,-2.527 0.238,-1.924 0,-1.082 0,0 m -8.164,-63.35 h -4.545 l 10.715,50.411 h 4.451 z" /></g><g
           transform="translate(825.2979,307.0898)"
           id="g138"><path
             id="path140"
             style="fill:#3c5ba7;fill-opacity:1;fill-rule:nonzero;stroke:none"
             d="m 0,0 6.91,32.092 c 0.649,2.844 0.975,5.256 0.975,7.234 0,2.475 -0.674,4.406 -2.018,5.799 -1.346,1.391 -3.426,2.086 -6.238,2.086 -3.463,0 -6.717,-1.037 -9.762,-3.107 -3.047,-2.073 -5.611,-4.971 -7.699,-8.696 -2.086,-3.726 -3.688,-8.154 -4.801,-13.287 L -27.363,0 h -4.545 l 10.715,50.41 h 3.802 l -1.716,-10.248 h 0.279 c 5.07,7.358 11.5,11.037 19.291,11.037 4.019,0 7.033,-0.99 9.045,-2.969 2.008,-1.978 3.013,-4.822 3.013,-8.533 0,-2.164 -0.371,-4.976 -1.113,-8.439 L 4.545,0 Z" /></g><g
           transform="translate(864.9951,306.1621)"
           id="g142"><path
             id="path144"
             style="fill:#3c5ba7;fill-opacity:1;fill-rule:nonzero;stroke:none"
             d="m 0,0 c -5.379,0 -9.623,1.707 -12.73,5.125 -3.106,3.416 -4.661,8.154 -4.661,14.213 0,5.967 1.137,11.557 3.409,16.766 2.273,5.209 5.341,9.183 9.207,11.919 3.863,2.737 8.347,4.104 13.449,4.104 4.142,0 7.867,-0.664 11.176,-1.994 l -1.299,-4.174 c -3.309,1.453 -6.678,2.18 -10.11,2.18 -3.988,0 -7.582,-1.192 -10.783,-3.571 -3.199,-2.38 -5.711,-5.814 -7.535,-10.297 -1.824,-4.482 -2.736,-9.429 -2.736,-14.839 0,-4.885 1.136,-8.649 3.408,-11.293 2.273,-2.643 5.496,-3.965 9.67,-3.965 2.195,0 4.226,0.201 6.097,0.603 1.872,0.401 3.905,1.112 6.1,2.133 V 2.643 C 9.074,0.881 4.854,0 0,0" /></g><g
           transform="translate(891.8936,307.0898)"
           id="g146"><path
             id="path148"
             style="fill:#3c5ba7;fill-opacity:1;fill-rule:nonzero;stroke:none"
             d="m 0,0 h -4.359 l 15.49,72.162 h 4.359 z" /></g><g
           transform="translate(923.71,357.5)"
           id="g150"><path
             id="path152"
             style="fill:#3c5ba7;fill-opacity:1;fill-rule:nonzero;stroke:none"
             d="m 0,0 -7.051,-32.369 c -0.679,-3.279 -1.019,-5.721 -1.019,-7.328 0,-2.289 0.734,-4.106 2.203,-5.449 1.467,-1.346 3.609,-2.018 6.422,-2.018 3.402,0 6.609,1.012 9.625,3.037 3.013,2.025 5.549,4.916 7.605,8.672 2.055,3.758 3.594,8.078 4.613,12.963 L 27.27,0 h 4.544 L 21.1,-50.41 h -3.709 l 1.298,9.506 H 18.41 c -5.164,-6.832 -11.392,-10.248 -18.689,-10.248 -4.051,0 -7.119,0.957 -9.205,2.875 -2.088,1.916 -3.131,4.714 -3.131,8.394 0,1.856 0.34,4.483 1.019,7.883 l 6.957,32 z" /></g><g
           transform="translate(977.876,310.3359)"
           id="g154"><path
             id="path156"
             style="fill:#3c5ba7;fill-opacity:1;fill-rule:nonzero;stroke:none"
             d="m 0,0 c 2.752,0 5.512,0.965 8.279,2.898 2.766,1.932 5.241,4.53 7.42,7.791 2.18,3.262 3.826,6.832 4.94,10.713 1.113,3.881 1.668,7.119 1.668,9.717 0,3.895 -0.95,7.01 -2.852,9.344 -1.9,2.334 -4.506,3.502 -7.814,3.502 -3.834,0 -7.297,-1.283 -10.389,-3.85 C -1.84,37.549 -4.375,33.801 -6.354,28.869 -8.332,23.937 -9.322,18.875 -9.322,13.682 -9.322,4.561 -6.215,0 0,0 m 11.549,47.953 c 7.109,0 11.424,-3.385 12.937,-10.156 h 0.186 c 0.371,2.041 2.582,12.412 6.633,31.119 h 4.591 L 20.592,-3.246 H 16.789 L 18.875,9.461 H 18.598 C 13.248,0.371 6.693,-4.174 -1.066,-4.174 c -8.688,0 -13.032,5.781 -13.032,17.344 0,5.967 1.106,11.687 3.315,17.16 2.211,5.473 5.265,9.777 9.16,12.916 3.896,3.137 8.285,4.707 13.172,4.707" /></g><g
           transform="translate(1040.8564,354.3008)"
           id="g158"><path
             id="path160"
             style="fill:#3c5ba7;fill-opacity:1;fill-rule:nonzero;stroke:none"
             d="m 0,0 c -4.051,0 -7.814,-1.785 -11.293,-5.355 -3.478,-3.573 -5.99,-8.342 -7.537,-14.309 h 2.273 c 15.985,0 23.977,4.174 23.977,12.521 0,2.073 -0.672,3.782 -2.018,5.125 C 4.057,-0.672 2.256,0 0,0 m -7.514,-48.139 c -5.349,0 -9.523,1.694 -12.521,5.078 -3,3.385 -4.498,8.108 -4.498,14.168 0,5.596 1.096,10.961 3.293,16.092 2.193,5.133 5.217,9.215 9.066,12.244 3.85,3.03 8.092,4.545 12.731,4.545 3.523,0 6.338,-0.943 8.439,-2.828 2.104,-1.887 3.154,-4.453 3.154,-7.699 0,-5.596 -2.527,-9.863 -7.582,-12.801 -5.056,-2.937 -12.562,-4.404 -22.515,-4.404 h -1.532 c -0.185,-1.361 -0.279,-2.877 -0.279,-4.545 0,-5.102 1.145,-8.99 3.434,-11.664 2.287,-2.676 5.58,-4.012 9.877,-4.012 4.082,0 8.347,1.129 12.801,3.385 v -4.359 c -4.331,-2.133 -8.952,-3.2 -13.868,-3.2" /></g><g
           transform="translate(1087.6963,320.7695)"
           id="g162"><path
             id="path164"
             style="fill:#3c5ba7;fill-opacity:1;fill-rule:nonzero;stroke:none"
             d="m 0,0 c 0,-4.451 -1.592,-8 -4.775,-10.643 -3.186,-2.642 -7.514,-3.964 -12.987,-3.964 -5.349,0 -10.064,1.158 -14.144,3.478 v 4.961 c 2.287,-1.422 4.652,-2.52 7.095,-3.291 2.442,-0.773 4.731,-1.16 6.864,-1.16 4.267,0 7.529,0.889 9.785,2.666 2.258,1.777 3.387,4.305 3.387,7.584 0,1.297 -0.241,2.441 -0.719,3.432 -0.481,0.988 -1.254,1.939 -2.32,2.851 -1.067,0.912 -3.116,2.232 -6.145,3.965 -4.576,2.473 -7.668,4.723 -9.275,6.748 -1.608,2.025 -2.412,4.49 -2.412,7.396 0,3.957 1.523,7.198 4.568,9.717 3.045,2.52 7.057,3.78 12.035,3.78 2.318,0 4.77,-0.272 7.352,-0.811 2.58,-0.543 4.754,-1.262 6.515,-2.158 l -1.623,-4.08 c -4.205,1.978 -8.287,2.968 -12.244,2.968 -3.586,0 -6.463,-0.82 -8.625,-2.459 -2.166,-1.638 -3.248,-3.771 -3.248,-6.4 0,-1.699 0.264,-3.06 0.789,-4.08 0.525,-1.021 1.461,-2.08 2.807,-3.178 1.343,-1.097 3.191,-2.279 5.541,-3.547 3.525,-1.949 6.021,-3.548 7.49,-4.8 C -2.82,7.723 -1.738,6.385 -1.043,4.963 -0.348,3.541 0,1.887 0,0" /></g><g
           transform="translate(1146.9189,354.3008)"
           id="g166"><path
             id="path168"
             style="fill:#3c5ba7;fill-opacity:1;fill-rule:nonzero;stroke:none"
             d="m 0,0 c -4.051,0 -7.814,-1.785 -11.293,-5.355 -3.477,-3.573 -5.99,-8.342 -7.535,-14.309 h 2.271 c 15.985,0 23.977,4.174 23.977,12.521 0,2.073 -0.672,3.782 -2.016,5.125 C 4.059,-0.672 2.258,0 0,0 m -7.512,-48.139 c -5.349,0 -9.523,1.694 -12.523,5.078 -2.998,3.385 -4.498,8.108 -4.498,14.168 0,5.596 1.097,10.961 3.293,16.092 2.195,5.133 5.217,9.215 9.066,12.244 3.85,3.03 8.094,4.545 12.731,4.545 3.525,0 6.338,-0.943 8.441,-2.828 2.102,-1.887 3.152,-4.453 3.152,-7.699 0,-5.596 -2.527,-9.863 -7.582,-12.801 -5.054,-2.937 -12.56,-4.404 -22.515,-4.404 h -1.532 c -0.185,-1.361 -0.277,-2.877 -0.277,-4.545 0,-5.102 1.143,-8.99 3.432,-11.664 2.287,-2.676 5.58,-4.012 9.879,-4.012 4.08,0 8.347,1.129 12.799,3.385 v -4.359 c -4.329,-2.133 -8.95,-3.2 -13.866,-3.2" /></g><g
           transform="translate(1173.4932,307.0898)"
           id="g170"><path
             id="path172"
             style="fill:#3c5ba7;fill-opacity:1;fill-rule:nonzero;stroke:none"
             d="m 0,0 -7.977,50.41 h 4.684 L 1.717,16.324 C 2.52,11.223 3.031,7.295 3.246,4.545 H 3.525 C 5.102,8.1 7.096,12.057 9.508,16.416 L 28.336,50.41 h 4.73 L 5.242,0 Z" /></g><g
           transform="translate(1231.4639,354.3008)"
           id="g174"><path
             id="path176"
             style="fill:#3c5ba7;fill-opacity:1;fill-rule:nonzero;stroke:none"
             d="m 0,0 c -4.051,0 -7.814,-1.785 -11.293,-5.355 -3.477,-3.573 -5.99,-8.342 -7.535,-14.309 h 2.271 c 15.985,0 23.977,4.174 23.977,12.521 0,2.073 -0.672,3.782 -2.016,5.125 C 4.059,-0.672 2.258,0 0,0 m -7.512,-48.139 c -5.349,0 -9.523,1.694 -12.523,5.078 -2.998,3.385 -4.498,8.108 -4.498,14.168 0,5.596 1.097,10.961 3.293,16.092 2.195,5.133 5.217,9.215 9.066,12.244 3.85,3.03 8.094,4.545 12.731,4.545 3.525,0 6.338,-0.943 8.441,-2.828 2.102,-1.887 3.152,-4.453 3.152,-7.699 0,-5.596 -2.527,-9.863 -7.582,-12.801 -5.054,-2.937 -12.56,-4.404 -22.515,-4.404 h -1.532 c -0.185,-1.361 -0.277,-2.877 -0.277,-4.545 0,-5.102 1.143,-8.99 3.432,-11.664 2.287,-2.676 5.58,-4.012 9.879,-4.012 4.08,0 8.347,1.129 12.799,3.385 v -4.359 c -4.329,-2.133 -8.95,-3.2 -13.866,-3.2" /></g><g
           transform="translate(1278.3057,358.3828)"
           id="g178"><path
             id="path180"
             style="fill:#3c5ba7;fill-opacity:1;fill-rule:nonzero;stroke:none"
             d="M 0,0 C 2.133,0 4.035,-0.217 5.703,-0.65 L 4.73,-4.963 c -1.453,0.463 -3.201,0.695 -5.24,0.695 -2.906,0 -5.674,-0.99 -8.303,-2.968 -2.626,-1.979 -4.992,-4.948 -7.095,-8.905 -2.102,-3.957 -3.649,-8.238 -4.637,-12.845 l -4.639,-22.307 h -4.545 l 10.713,50.41 h 3.711 l -1.345,-9.461 h 0.279 c 2.256,2.907 4.158,5.002 5.705,6.285 1.545,1.284 3.191,2.28 4.937,2.991 C -3.982,-0.357 -2.072,0 0,0" /></g><g
           transform="translate(1285.8174,357.5)"
           id="g182"><path
             id="path184"
             style="fill:#3c5ba7;fill-opacity:1;fill-rule:nonzero;stroke:none"
             d="m 0,0 h 4.639 l 3.802,-25.414 c 1.577,-10.852 2.426,-17.793 2.551,-20.822 h 0.51 c 1.33,3.246 4.205,8.92 8.627,17.019 L 36.268,0 h 4.777 L 7.977,-59.824 c -2.225,-3.928 -4.12,-6.68 -5.68,-8.256 -1.563,-1.576 -3.324,-2.828 -5.287,-3.756 -1.965,-0.928 -4.229,-1.393 -6.795,-1.393 -2.102,0 -4.096,0.325 -5.983,0.975 v 4.266 c 2.196,-0.834 4.313,-1.252 6.354,-1.252 2.475,0 4.746,0.765 6.818,2.297 2.071,1.529 4.08,4.074 6.028,7.629 1.949,3.554 3.494,6.4 4.638,8.533 z" /></g><g
           transform="translate(1352.5088,354.4863)"
           id="g186"><path
             id="path188"
             style="fill:#3c5ba7;fill-opacity:1;fill-rule:nonzero;stroke:none"
             d="m 0,0 c -3.834,0 -7.281,-1.213 -10.342,-3.641 -3.062,-2.427 -5.504,-5.906 -7.328,-10.435 -1.824,-4.529 -2.736,-9.328 -2.736,-14.399 0,-10.574 4.359,-15.861 13.078,-15.861 3.926,0 7.412,1.197 10.457,3.594 3.045,2.396 5.473,5.92 7.281,10.574 1.809,4.652 2.715,9.762 2.715,15.328 0,4.76 -1.131,8.424 -3.387,10.99 C 7.48,-1.283 4.234,0 0,0 m 0.371,3.988 c 5.565,0 9.869,-1.677 12.916,-5.031 3.045,-3.355 4.567,-7.984 4.567,-13.891 0,-6.091 -1.106,-11.787 -3.315,-17.089 -2.211,-5.303 -5.234,-9.344 -9.066,-12.127 -3.834,-2.784 -8.256,-4.174 -13.264,-4.174 -5.689,0 -10.012,1.693 -12.963,5.078 -2.953,3.385 -4.43,8.232 -4.43,14.539 0,5.904 1.129,11.439 3.387,16.603 2.256,5.163 5.301,9.135 9.135,11.918 3.834,2.784 8.178,4.174 13.033,4.174" /></g><g
           transform="translate(1410.3389,307.0898)"
           id="g190"><path
             id="path192"
             style="fill:#3c5ba7;fill-opacity:1;fill-rule:nonzero;stroke:none"
             d="m 0,0 6.91,32.092 c 0.651,2.844 0.975,5.256 0.975,7.234 0,2.475 -0.672,4.406 -2.018,5.799 -1.346,1.391 -3.424,2.086 -6.238,2.086 -3.463,0 -6.717,-1.037 -9.762,-3.107 -3.045,-2.073 -5.611,-4.971 -7.699,-8.696 -2.086,-3.726 -3.686,-8.154 -4.799,-13.287 L -27.361,0 h -4.545 l 10.713,50.41 h 3.802 l -1.716,-10.248 h 0.279 c 5.07,7.358 11.502,11.037 19.293,11.037 4.017,0 7.033,-0.99 9.043,-2.969 2.01,-1.978 3.013,-4.822 3.013,-8.533 0,-2.164 -0.371,-4.976 -1.111,-8.439 L 4.545,0 Z" /></g><g
           transform="translate(1457.1807,354.3008)"
           id="g194"><path
             id="path196"
             style="fill:#3c5ba7;fill-opacity:1;fill-rule:nonzero;stroke:none"
             d="m 0,0 c -4.051,0 -7.814,-1.785 -11.293,-5.355 -3.478,-3.573 -5.99,-8.342 -7.537,-14.309 h 2.273 c 15.985,0 23.977,4.174 23.977,12.521 0,2.073 -0.672,3.782 -2.018,5.125 C 4.057,-0.672 2.256,0 0,0 m -7.514,-48.139 c -5.349,0 -9.523,1.694 -12.521,5.078 -3,3.385 -4.498,8.108 -4.498,14.168 0,5.596 1.096,10.961 3.293,16.092 2.193,5.133 5.217,9.215 9.066,12.244 3.85,3.03 8.092,4.545 12.731,4.545 3.523,0 6.338,-0.943 8.439,-2.828 2.104,-1.887 3.154,-4.453 3.154,-7.699 0,-5.596 -2.527,-9.863 -7.582,-12.801 -5.056,-2.937 -12.562,-4.404 -22.515,-4.404 h -1.532 c -0.185,-1.361 -0.279,-2.877 -0.279,-4.545 0,-5.102 1.145,-8.99 3.434,-11.664 2.287,-2.676 5.58,-4.012 9.877,-4.012 4.082,0 8.347,1.129 12.801,3.385 v -4.359 c -4.331,-2.133 -8.952,-3.2 -13.868,-3.2" /></g><g
           transform="translate(1482.4541,324.5742)"
           id="g198"><path
             id="path200"
             style="fill:#3c5ba7;fill-opacity:1;fill-rule:nonzero;stroke:none"
             d="m 0,0 h -2.875 l 9.416,50.318 h 5.518 z m -7.791,-14.842 c 0,1.733 0.387,3.1 1.16,4.106 0.772,1.004 1.84,1.506 3.199,1.506 2.041,0 3.063,-1.114 3.063,-3.338 0,-1.641 -0.389,-2.993 -1.16,-4.059 -0.774,-1.066 -1.825,-1.6 -3.155,-1.6 -2.07,0 -3.107,1.129 -3.107,3.385" /></g></g></g></g></svg>