<?xml version="1.0" encoding="utf-8"?>
<!-- Generator: Adobe Illustrator 22.1.0, SVG Export Plug-In . SVG Version: 6.00 Build 0)  -->
<svg version="1.1" id="Layer_1" xmlns="http://www.w3.org/2000/svg" xmlns:xlink="http://www.w3.org/1999/xlink" x="0px" y="0px"
	 viewBox="0 0 1024 1024" style="enable-background:new 0 0 1024 1024;" xml:space="preserve">
<style type="text/css">
	.st0{fill:#FFFFFF;}
	.st1{fill:url(#path1948_7_);}
	.st2{fill:url(#path1950_7_);}
	.st3{fill:url(#SVGID_1_);}
	.st4{fill:url(#SVGID_2_);}
	.st5{fill:url(#SVGID_3_);}
	.st6{fill:url(#SVGID_4_);}
	.st7{fill:url(#SVGID_5_);}
	.st8{fill:url(#SVGID_6_);}
	.st9{fill:none;}
	.st10{fill:#444444;}
	.st11{fill:url(#path1948_8_);}
	.st12{fill:url(#path1950_8_);}
	.st13{fill:url(#SVGID_7_);}
	.st14{fill:url(#SVGID_8_);}
	.st15{fill:url(#SVGID_9_);}
	.st16{fill:url(#SVGID_10_);}
	.st17{fill:url(#SVGID_11_);}
	.st18{fill:url(#SVGID_12_);}
</style>
<g>
	<circle class="st0" cx="381.6" cy="141" r="38.6"/>
	<circle class="st0" cx="642.7" cy="877.6" r="38.6"/>
	<g>
		<g>
			<g>
				<linearGradient id="path1948_7_" gradientUnits="userSpaceOnUse" x1="31.6764" y1="385.2466" x2="744.1289" y2="385.2466">
					<stop  offset="0" style="stop-color:#FFD43B"/>
					<stop  offset="1" style="stop-color:#FFE873"/>
				</linearGradient>
				<path id="path1948_3_" class="st1" d="M690.7,349.2c3.7-38.4,2.9-98.6-13.4-188.4C663.7,86.4,603.1,46.7,534.7,26
					c-9.2-0.3-18.5-0.4-27.6-0.4c-39.7,0.2-77.6,3.6-110.9,9.5C298,52.4,280.1,88.7,280.1,155.7v88.5h232.1v29.5H193
					c-53.9,0-102.4,25.9-129.1,75.5c-0.3,0.6-0.7,1.1-0.9,1.7c-6.3,12.1-11.4,25.6-15,40.4c-21.3,88.4-22.3,143.6,0,235.9
					c3.2,13.1,7.2,25.5,12,37c0.2,0.6,0.5,1.2,0.8,1.7c20.7,47.6,56.7,78.9,110.6,78.9h79.8v-106c0-9.4,1-18.7,2.9-27.7
					c13.5-64.5,73-116.5,142.1-116.5h231.9c61.7,0,111.5-48.6,115.8-109.5c0.2-2.8,0.3-5.7,0.3-8.5v-27.5H690.7z M381.6,185.2
					c-24,0-43.6-19.7-43.6-44.1c0-24.5,19.5-44.4,43.6-44.4c24,0,43.6,19.9,43.6,44.4C425.1,165.5,405.6,185.2,381.6,185.2z"/>
				<linearGradient id="path1950_7_" gradientUnits="userSpaceOnUse" x1="280.1424" y1="636.1027" x2="994.0328" y2="636.1027">
					<stop  offset="0" style="stop-color:#5A9FD4"/>
					<stop  offset="1" style="stop-color:#306998"/>
				</linearGradient>
				<path id="path1950_3_" class="st2" d="M773.1,273.7v103.1c0,79.9-67.8,147.2-145,147.2H396.2c-63.5,0-116.1,54.4-116.1,118v221
					c0,62.9,54.7,99.9,116.1,118c73.5,21.6,143.9,25.5,231.9,0c58.4-16.9,116.1-51,116.1-118v-88.5H512.3v-29.5h231.9h116.1
					c67.5,0,92.6-47.1,116.1-117.7c24.2-72.7,23.2-142.6,0-235.9c-16.7-67.2-48.5-117.7-116.1-117.7H773.1z M642.7,833.4
					c24.1,0,43.6,19.7,43.6,44.1c0,24.5-19.5,44.4-43.6,44.4c-24,0-43.6-19.9-43.6-44.4C599.1,853.1,618.7,833.4,642.7,833.4z"/>
			</g>
			<linearGradient id="SVGID_1_" gradientUnits="userSpaceOnUse" x1="952.8536" y1="47.3434" x2="382.6329" y2="302.4872">
				<stop  offset="0" style="stop-color:#FFC13B"/>
				<stop  offset="0.5243" style="stop-color:#FFC84C"/>
				<stop  offset="0.6649" style="stop-color:#FFCA51"/>
				<stop  offset="1" style="stop-color:#FFE899"/>
			</linearGradient>
			<path class="st3" d="M744.1,155.7v193.5l-65.2-1.7c3.7-38.4,14.6-96.9-1.7-186.6C663.7,86.4,603.1,46.7,534.7,26
				c31,1,62.6,3.9,93.4,9.1C691,45.5,744.1,92.8,744.1,155.7z"/>
			
				<linearGradient id="SVGID_2_" gradientUnits="userSpaceOnUse" x1="9756.4736" y1="-1167.8165" x2="9167.3408" y2="-904.2109" gradientTransform="matrix(-1 0 0 -1 9817.6279 -197.7198)">
				<stop  offset="0.1135" style="stop-color:#3A76A7"/>
				<stop  offset="1" style="stop-color:#5A9FD4"/>
				<stop  offset="1" style="stop-color:#306998"/>
			</linearGradient>
			<path class="st4" d="M278.3,859.7v-204l65.2,1.8c-3.7,40.5-14.6,102.2,1.7,196.8c13.5,78.5,74.1,120.3,142.5,142.2
				c-31-1-62.6-4.2-93.4-9.6C331.3,975.9,278.3,926,278.3,859.7z"/>
			
				<linearGradient id="SVGID_3_" gradientUnits="userSpaceOnUse" x1="1803.4911" y1="-369.8974" x2="1195.9899" y2="-593.6121" gradientTransform="matrix(1 0 0 -1 342.3003 -179.7198)">
				<stop  offset="0" style="stop-color:#5A9FD4"/>
				<stop  offset="1" style="stop-color:#306998"/>
			</linearGradient>
			<path class="st5" d="M966.6,659.1c0,0,42.5-76.1,27.4-95.9l-105,1c3.8,21.8,15.1,54.9-1.8,105.8c-14,42.2-96.6,63-167.2,74.7
				c32-0.6,91.4,0,123.3,0C884.4,744.8,925.5,748.2,966.6,659.1z"/>
			
				<linearGradient id="SVGID_4_" gradientUnits="userSpaceOnUse" x1="9142.7314" y1="491.8091" x2="9472.8164" y2="875.253" gradientTransform="matrix(-1 0 0 1 9392.4775 -267.6149)">
				<stop  offset="0" style="stop-color:#FFC13B"/>
				<stop  offset="0.5243" style="stop-color:#FFC84C"/>
				<stop  offset="0.6649" style="stop-color:#FFCA51"/>
				<stop  offset="1" style="stop-color:#FFE899"/>
			</linearGradient>
			<path class="st6" d="M60.1,356.9c-8.6,23.4-24.5,96.7-24.5,96.7l104.5-1c-3.8-21.8-15.1-54.9,1.8-105.8
				c14-42.2,78.2-61.5,148.8-73.2c-32,0.6-73-1.5-104.9-1.5C162,272.1,89,278.6,60.1,356.9z"/>
			
				<linearGradient id="SVGID_5_" gradientUnits="userSpaceOnUse" x1="9165.3887" y1="-829.6103" x2="9461.2822" y2="-485.8844" gradientTransform="matrix(-1 0 0 -1 9392.4775 -50.3187)">
				<stop  offset="0" style="stop-color:#FFC13B"/>
				<stop  offset="0.5243" style="stop-color:#FFC84C"/>
				<stop  offset="0.6649" style="stop-color:#FFCA51"/>
				<stop  offset="1" style="stop-color:#FFE899"/>
			</linearGradient>
			<path class="st7" d="M60.1,661.7c-6.4-24-13-98.5-13-98.5l79.6,2.7c-3.2,21.8-10.4,54.4,1.5,105.8c13.7,59.3,65.1,61.5,124,73.2
				c-26.7-0.6-60.8,1.5-87.4,1.5C145,746.5,80.9,739.9,60.1,661.7z"/>
			
				<linearGradient id="SVGID_6_" gradientUnits="userSpaceOnUse" x1="4253.6968" y1="-2028.5437" x2="3720.9153" y2="-1718.625" gradientTransform="matrix(1 0 0 1 1527.2073 -458.0207)">
				<stop  offset="0" style="stop-color:#5A9FD4"/>
				<stop  offset="1" style="stop-color:#306998"/>
			</linearGradient>
			<path class="st8" d="M966.6,356.9c7.3,23.6,20.9,96.7,20.9,96.7l-87.5-1c3.2-21.8,12.5-54.9-1.5-105.8
				c-11.6-42.2-65.1-61.5-124-73.2c26.7,0.6,60.8-1.5,87.4-1.5C881.8,272.1,942.7,279.6,966.6,356.9z"/>
		</g>
		<g>
			<g>
				<g id="path1948_2_">
					<path class="st9" d="M690.7,349.2c3.7-38.4,2.9-98.6-13.4-188.4C663.7,86.4,603.1,46.7,534.7,26c-9.2-0.3-18.5-0.4-27.6-0.4
						c-39.7,0.2-77.6,3.6-110.9,9.5C298,52.4,280.1,88.7,280.1,155.7v88.5h232.1v29.5H193c-53.9,0-102.4,25.9-129.1,75.5
						c-0.3,0.6-0.7,1.1-0.9,1.7c-6.3,12.1-11.4,25.6-15,40.4c-21.3,88.4-22.3,143.6,0,235.9c3.2,13.1,7.2,25.5,12,37
						c0.2,0.6,0.5,1.2,0.8,1.7c20.7,47.6,56.7,78.9,110.6,78.9h79.8v-106c0-9.4,1-18.7,2.9-27.7c13.5-64.5,73-116.5,142.1-116.5
						h231.9c61.7,0,111.5-48.6,115.8-109.5c0.2-2.8,0.3-5.7,0.3-8.5v-27.5H690.7z M381.6,185.2c-24,0-43.6-19.7-43.6-44.1
						c0-24.5,19.5-44.4,43.6-44.4c24,0,43.6,19.9,43.6,44.4C425.1,165.5,405.6,185.2,381.6,185.2z"/>
				</g>
				<g id="path1950_2_">
					<path class="st9" d="M773.1,273.7v103.1c0,79.9-67.8,147.2-145,147.2H396.2c-63.5,0-116.1,54.4-116.1,118v221
						c0,62.9,54.7,99.9,116.1,118c73.5,21.6,143.9,25.5,231.9,0c58.4-16.9,116.1-51,116.1-118v-88.5H512.3v-29.5h231.9h116.1
						c67.5,0,92.6-47.1,116.1-117.7c24.2-72.7,23.2-142.6,0-235.9c-16.7-67.2-48.5-117.7-116.1-117.7H773.1z M642.7,833.4
						c24.1,0,43.6,19.7,43.6,44.1c0,24.5-19.5,44.4-43.6,44.4c-24,0-43.6-19.9-43.6-44.4C599.1,853.1,618.7,833.4,642.7,833.4z"/>
				</g>
			</g>
			<g id="path1948_1_">
				<path class="st10" d="M259.8,753.5h-88.4c-65.7,0-112.5-44.1-131.7-124.2c-22.2-91.9-22.2-148,0-239.9
					c18.4-76.6,77.1-124.2,153.3-124.2h310.7v-12.4H271.6v-97c0-69.6,19.6-110.8,123.1-129.1c34.4-6.1,73.3-9.4,112.4-9.6l0,0
					c41.4-0.2,83.6,3.1,122.4,9.6c71.4,11.9,123.2,66.2,123.2,129.1v221c0,69.8-55.9,126.5-124.6,126.5H396.2
					c-72.7,0-136.4,63.4-136.4,135.6V753.5z M193,282.2c-67.9,0-120.3,42.6-136.7,111.1c-21.4,88.9-21.4,143.1,0,231.9
					c12.2,50.7,42,111.1,115,111.1h71.2v-97.5c0-82.8,70.3-152.8,153.6-152.8h231.9c59.3,0,107.5-49.1,107.5-109.4v-221
					c0-61.8-54.8-103.2-108.9-112.2c-37.9-6.3-79.2-9.6-119.5-9.4l0,0c-38.1,0.2-76,3.4-109.5,9.3c-93.3,16.5-109,47.9-109,112.2
					v79.9h232.1v46.6H193z M381.6,193.8c-28.7,0-52.1-23.6-52.1-52.7c0-29.2,23.4-52.9,52.1-52.9c28.7,0,52.1,23.7,52.1,52.9
					C433.7,170.1,410.3,193.8,381.6,193.8z M381.6,105.3c-19.3,0-35,16.1-35,35.8c0,19.6,15.7,35.5,35,35.5c19.3,0,35-15.9,35-35.5
					C416.6,121.4,400.9,105.3,381.6,105.3z"/>
			</g>
			<g id="path1950_1_">
				<path class="st10" d="M511.7,1007c-38.7,0-77.3-6-117.9-17.9c-78.8-23.2-122.2-68-122.2-126.2v-221
					c0-68.6,57.1-126.5,124.6-126.5h231.9c72.7,0,136.4-64.8,136.4-138.6V265.1h95.7c62.9,0,103.6,40.6,124.4,124.2
					c24,96.4,23.9,168.4-0.2,240.7c-21.6,65.1-47.4,123.5-124.2,123.5H520.8v12.4h231.9v97c0,59.4-42.3,103-122.2,126.2
					C589.3,1001,550.4,1007,511.7,1007z M396.2,532.5c-58.3,0-107.5,50.1-107.5,109.4v221c0,67.4,68.9,97.7,109.9,109.7
					c79,23.2,146.9,23.2,227.1,0c72.9-21.1,109.9-58,109.9-109.7V783H503.7v-46.6h356.5c59.5,0,83.8-39.3,107.9-111.8
					c23.3-69.9,23.3-136.9-0.2-231.1c-18.8-75.9-53.1-111.2-107.8-111.2h-78.6v94.5c0,84.4-70.3,155.7-153.6,155.7H396.2z
					 M642.7,930.4c-28.7,0-52.1-23.7-52.1-52.9c0-29,23.4-52.7,52.1-52.7c28.7,0,52.1,23.6,52.1,52.7
					C694.8,906.7,671.4,930.4,642.7,930.4z M642.7,842c-19.3,0-35,15.9-35,35.5c0,19.7,15.7,35.8,35,35.8c19.3,0,35-16.1,35-35.8
					C677.7,857.9,662,842,642.7,842z"/>
			</g>
			<g>
				<g>
					<path class="st0" d="M1015.4,349.2v315.1H771.2v20.5c0,6.6-5.4,12-12,12H263.7c-6.6,0-12-5.4-12-12v-20.5H8.6V349.2H1015.4z"/>
					<path class="st10" d="M759.2,705.4H263.7c-11.3,0-20.5-9.2-20.5-20.5v-12H0V340.6h1024v332.2H779.8v12
						C779.8,696.2,770.6,705.4,759.2,705.4z M17.1,655.7h243.2v29.1c0,1.9,1.5,3.4,3.4,3.4h495.5c1.9,0,3.4-1.5,3.4-3.4v-29.1h244.2
						v-298H17.1V655.7z"/>
				</g>
				<g>
					<rect x="53" y="602.6" class="st10" width="207.6" height="17.1"/>
				</g>
				<g>
					<path class="st10" d="M301.3,657.6V595c0-3.2,2.5-5.7,5.7-5.7h19.3c6.1,0,11.7,2.4,15.8,6.4c4.1,4,6.5,9.5,6.5,15.5
						c0,6.1-2.4,11.5-6.5,15.4c-4.1,4-9.8,6.3-15.8,6.3h-13.6v24.7c0,3.2-2.5,5.7-5.8,5.7C303.8,663.3,301.3,660.8,301.3,657.6z
						 M326.4,621.5c2.8,0,5.6-1.2,7.6-3.2c2-1.9,3.1-4.6,3.1-7.3c0-2.8-1.2-5.4-3.2-7.3c-2-1.8-4.7-2.9-7.6-2.9h-13.6v20.7H326.4z"
						/>
					<path class="st10" d="M373.7,663.3c-3.1-0.2-5.3-2.5-5.3-5.7v-62.4c0-1.6,0.6-3,1.7-4.1s2.5-1.7,4.1-1.7H405
						c1.6,0,2.9,0.6,4,1.7c1.1,1.1,1.6,2.4,1.6,4.1c0,3.2-2.4,5.7-5.7,5.7h-25.1v20H398c1.6-0.1,3,0.5,4.1,1.6s1.6,2.4,1.6,4.1
						c0,3.2-2.5,5.5-5.7,5.5h-18.1v19.8H405c3.2,0,5.7,2.5,5.7,5.8c0,1.6-0.5,2.9-1.6,4c-1.1,1.1-2.5,1.7-4,1.6H373.7z"/>
					<path class="st10" d="M430.3,657.6V595c0-3.2,2.5-5.7,5.7-5.7h19.3c6.1,0,11.7,2.4,15.8,6.4c4.1,4,6.5,9.5,6.5,15.5
						c0,4.7-1.5,9.2-4.1,12.7c-2.6,3.5-6.4,6.3-10.5,7.7l13.7,23.1c0.5,0.9,0.8,1.8,0.8,2.7c0,0.5-0.1,1.1-0.3,1.7
						c-0.5,1.6-1.4,2.7-2.8,3.4c-0.9,0.5-1.7,0.7-2.7,0.7c-0.6,0-1.1-0.1-1.6-0.2c-1.6-0.5-2.7-1.3-3.4-2.7l-16.1-27.4h-8.8v24.7
						c0,3.2-2.5,5.7-5.8,5.7C432.8,663.3,430.3,660.8,430.3,657.6z M455.4,621.5c2.8,0,5.6-1.2,7.6-3.2c2-1.9,3.1-4.6,3.1-7.3
						c0-2.8-1.2-5.4-3.2-7.3c-2-1.8-4.7-2.9-7.6-2.9h-13.6v20.7H455.4z"/>
					<path class="st10" d="M504.6,663.3c-3.1-0.2-5.3-2.5-5.3-5.7v-62.4c0-1.6,0.6-3,1.7-4.1s2.5-1.7,4.1-1.7h30.8
						c1.6,0,2.9,0.6,4,1.7c1.1,1.1,1.6,2.4,1.6,4.1c0,3.2-2.4,5.7-5.7,5.7h-25.1v20H529c1.6-0.1,3,0.5,4.1,1.6
						c1.1,1.1,1.6,2.4,1.6,4.1c0,3.2-2.5,5.5-5.7,5.5h-18.1v19.8h25.1c3.2,0,5.7,2.5,5.7,5.8c0,1.6-0.5,2.9-1.6,4
						c-1.1,1.1-2.5,1.7-4,1.6H504.6z"/>
					<path class="st10" d="M561.2,657.6V595c0-3.2,2.5-5.7,5.7-5.7c3.2,0,5.8,2.4,5.8,5.7v62.6c0,3.2-2.5,5.7-5.8,5.7
						C563.7,663.3,561.2,660.8,561.2,657.6z"/>
					<path class="st10" d="M597,657.6V595c0-3.2,2.5-5.7,5.7-5.7h19.3c6.1,0,11.7,2.4,15.8,6.4c4.1,4,6.5,9.5,6.5,15.5
						c0,4.7-1.5,9.2-4.1,12.7c-2.6,3.5-6.4,6.3-10.5,7.7l13.7,23.1c0.5,0.9,0.8,1.8,0.8,2.7c0,0.5-0.1,1.1-0.3,1.7
						c-0.5,1.6-1.4,2.7-2.8,3.4c-0.9,0.5-1.7,0.7-2.7,0.7c-0.6,0-1.1-0.1-1.6-0.2c-1.6-0.5-2.7-1.3-3.4-2.7l-16.1-27.4h-8.8v24.7
						c0,3.2-2.5,5.7-5.8,5.7C599.5,663.3,597,660.8,597,657.6z M622.1,621.5c2.8,0,5.6-1.2,7.6-3.2c2-1.9,3.1-4.6,3.1-7.3
						c0-2.8-1.2-5.4-3.2-7.3c-2-1.8-4.7-2.9-7.6-2.9h-13.6v20.7H622.1z"/>
					<path class="st10" d="M714.3,659.9l-7.2-17.2h-29.3l-7.1,17.1c-0.6,1.6-1.7,2.5-3.2,3.1c-0.8,0.3-1.4,0.4-2.1,0.4
						c-0.9,0-1.7-0.2-2.5-0.5c-2.1-0.9-3.2-2.8-3.2-4.9c0-1,0.2-1.8,0.6-2.7l27.1-62.3c1-2.3,2.9-3.5,5.3-3.5c2.3,0,4.3,1.2,5.2,3.5
						l26.8,62.4c0.4,0.8,0.6,1.7,0.6,2.7c0,2.1-1.2,4-3.2,4.9c-0.7,0.3-1.6,0.5-2.4,0.5c-0.7,0-1.4-0.1-2-0.3
						C716.2,662.4,715.1,661.4,714.3,659.9z M702.3,631.2l-9.9-23.5l-9.8,23.5H702.3z"/>
				</g>
				<g>
					<path class="st10" d="M159.3,395c42.4,0,66.7,20.8,66.7,57.7c0,38.8-24.4,61.3-66.7,61.3h-30.1v46.6H87.1V395H159.3z
						 M129.2,480.9h27.9c18.5,0,29.1-9.2,29.1-26.7c0-17.3-10.6-26-29.1-26h-27.9V480.9z"/>
					<path class="st10" d="M345.3,560.7h-41.9v-52.3L242.1,395h42.1l40,72.2l39.1-72.2h42.1l-60.1,112.2V560.7z"/>
					<path class="st10" d="M503.9,395c52.1,0,88,33.6,88,82.8c0,49-36.4,82.8-89.7,82.8h-69.6V395H503.9z M474.8,527.1h30.1
						c25.8,0,44.3-19.9,44.3-49c0-29.3-19.4-49.5-46.2-49.5h-28.2V527.1z"/>
					<path class="st10" d="M659.1,530.2l-12.1,30.5h-43.3L675.2,395h43.3l69.8,165.7h-45l-11.8-30.5H659.1z M695.6,436.9l-24.1,61.3
						h47.8L695.6,436.9z"/>
					<path class="st10" d="M888.2,560.7h-41.9v-52.3L785,395h42.1l40,72.2l39.1-72.2h42.1l-60.1,112.2V560.7z"/>
				</g>
				<g>
					<rect x="762.7" y="602.6" class="st10" width="208.1" height="17.1"/>
				</g>
			</g>
		</g>
	</g>
</g>
</svg>
