<?xml version="1.0" encoding="utf-8"?>
<!-- Generator: Adobe Illustrator 16.0.0, SVG Export Plug-In . SVG Version: 6.00 Build 0)  -->
<!DOCTYPE svg PUBLIC "-//W3C//DTD SVG 1.1//EN" "http://www.w3.org/Graphics/SVG/1.1/DTD/svg11.dtd">
<svg version="1.1" xmlns="http://www.w3.org/2000/svg" xmlns:xlink="http://www.w3.org/1999/xlink" x="0px" y="0px"
	 width="354.93px" height="354.93px" viewBox="0 0 354.93 354.93" enable-background="new 0 0 354.93 354.93" xml:space="preserve">
<g id="brand_x5F_1">
</g>
<g id="brand_x5F_1_copy">
	<g id="Layer_6">
	</g>
	<g id="logo_copy">
	</g>
	<g id="Layer_7">
	</g>
</g>
<g id="brand_x5F_2">
	<g>
		<path fill="#535454" d="M26.803,306.452c-0.316-0.314-0.473-0.674-0.473-1.075v-30.014c0-0.459,0.157-0.846,0.473-1.161
			c0.314-0.314,0.673-0.474,1.075-0.474h19.006c2.178,0,4.055-0.773,5.633-2.321c1.576-1.549,2.365-3.411,2.365-5.591
			c0-2.235-0.789-4.128-2.365-5.676c-1.578-1.548-3.455-2.322-5.633-2.322H27.878c-0.402,0-0.761-0.157-1.075-0.473
			c-0.316-0.314-0.473-0.701-0.473-1.161v-7.912c0-0.458,0.157-0.845,0.473-1.161c0.314-0.313,0.673-0.473,1.075-0.473h19.006
			c3.44,0,6.622,0.86,9.546,2.58s5.246,4.057,6.966,7.009c1.72,2.954,2.58,6.149,2.58,9.589c0,3.44-0.86,6.622-2.58,9.547
			c-1.72,2.924-4.042,5.245-6.966,6.966c-2.924,1.72-6.106,2.58-9.546,2.58h-9.116c-0.631,0-1.062,0.086-1.29,0.258
			c-0.229,0.172-0.344,0.516-0.344,1.032v19.178c0,0.459-0.159,0.832-0.473,1.118c-0.316,0.287-0.703,0.43-1.161,0.43h-6.622
			C27.477,306.925,27.118,306.768,26.803,306.452z"/>
		<path fill="#535454" d="M79.263,256.83c-0.316-0.314-0.473-0.702-0.473-1.161v-7.396c0-0.458,0.157-0.83,0.473-1.117
			c0.314-0.287,0.673-0.431,1.075-0.431h39.904c0.458,0,0.845,0.159,1.161,0.474c0.314,0.315,0.473,0.674,0.473,1.074v7.396
			c0,0.401-0.158,0.773-0.473,1.118c-0.316,0.344-0.703,0.516-1.161,0.516H80.337C79.936,257.303,79.577,257.146,79.263,256.83z
			 M79.263,306.452c-0.316-0.314-0.473-0.674-0.473-1.075v-39.732c0-0.458,0.157-0.83,0.473-1.118
			c0.314-0.286,0.673-0.43,1.075-0.43h7.31c0.458,0,0.831,0.144,1.118,0.43c0.286,0.288,0.43,0.66,0.43,1.118v6.192
			c0,1.09,0.744,1.634,2.236,1.634h21.672c0.4,0,0.745,0.129,1.032,0.387c0.286,0.259,0.43,0.589,0.43,0.989v7.396
			c0,0.401-0.144,0.73-0.43,0.988c-0.288,0.259-0.632,0.388-1.032,0.388h-21.93c-1.32,0-1.978,0.602-1.978,1.806v9.374
			c0,0.401,0.172,0.774,0.516,1.118c0.344,0.344,0.716,0.516,1.118,0.516h29.584c0.458,0,0.831,0.144,1.118,0.431
			c0.286,0.287,0.43,0.659,0.43,1.117v7.396c0,0.401-0.144,0.761-0.43,1.075c-0.288,0.315-0.66,0.473-1.118,0.473H80.337
			C79.936,306.925,79.577,306.768,79.263,306.452z"/>
		<path fill="#535454" d="M136.967,306.495c-0.315-0.286-0.473-0.659-0.473-1.118v-30.014c0-0.459,0.157-0.846,0.473-1.161
			c0.314-0.314,0.702-0.474,1.161-0.474h17.802c2.292,0,4.228-0.773,5.805-2.321c1.576-1.549,2.365-3.411,2.365-5.591
			c0-2.235-0.789-4.128-2.365-5.676c-1.578-1.548-3.513-2.322-5.805-2.322h-7.224c-0.632,0-1.161,0.216-1.591,0.646
			c-0.43,0.43-0.645,0.933-0.645,1.505v2.15c0,0.573-0.201,1.074-0.602,1.505c-0.401,0.43-0.917,0.645-1.548,0.645h-5.676
			c-0.574,0-1.075-0.215-1.505-0.645c-0.43-0.431-0.645-0.932-0.645-1.505v-13.847c0-0.458,0.157-0.845,0.473-1.161
			c0.314-0.313,0.702-0.473,1.161-0.473h17.802c3.554,0,6.822,0.86,9.804,2.58c2.98,1.72,5.345,4.042,7.095,6.966
			c1.748,2.924,2.623,6.136,2.623,9.632c0,2.982-0.675,5.792-2.021,8.429c-1.348,2.638-3.197,4.846-5.547,6.622
			c-0.344,0.229-0.516,0.516-0.516,0.859c0,0.345,0.028,0.632,0.086,0.86l9.976,22.273c0.229,0.402,0.344,0.774,0.344,1.118
			c0,0.632-0.402,0.946-1.204,0.946h-7.052c-0.632,0-1.104-0.057-1.419-0.172c-0.316-0.114-0.589-0.4-0.817-0.86l-8.944-20.124
			c-0.172-0.344-0.402-0.572-0.688-0.688c-0.288-0.114-0.86-0.172-1.72-0.172h-7.31c-0.688,0-1.219,0.101-1.591,0.301
			c-0.374,0.201-0.559,0.616-0.559,1.247v18.92c0,0.459-0.158,0.832-0.473,1.118c-0.316,0.287-0.703,0.43-1.161,0.43h-6.708
			C137.669,306.925,137.282,306.782,136.967,306.495z"/>
		<path fill="#535454" d="M188.267,302.453c0-3.183,2.15-5.418,5.16-5.418s5.073,2.235,5.073,5.418c0,3.096-1.978,5.418-5.159,5.418
			C190.33,307.871,188.267,305.549,188.267,302.453z"/>
		<path fill="#535454" d="M214.237,305.635v-46.44c0-0.572-0.201-1.045-0.602-1.419c-0.402-0.372-0.891-0.559-1.463-0.559h-4.902
			c-0.287,0-0.545-0.114-0.773-0.344c-0.229-0.229-0.344-0.517-0.344-0.86v-7.998c0-0.344,0.114-0.63,0.344-0.859
			c0.229-0.229,0.486-0.345,0.773-0.345h37.582c0.287,0,0.545,0.116,0.775,0.345c0.228,0.229,0.344,0.516,0.344,0.859v7.998
			c0,0.344-0.116,0.632-0.344,0.86c-0.23,0.229-0.488,0.344-0.775,0.344h-16.082c-0.573,0-1.061,0.201-1.461,0.602
			c-0.402,0.402-0.603,0.86-0.603,1.376v46.44c0,0.344-0.115,0.617-0.344,0.817c-0.229,0.201-0.487,0.301-0.774,0.301h-10.234
			C214.609,306.753,214.237,306.381,214.237,305.635z"/>
		<path fill="#535454" d="M257.581,302.453c0-3.183,2.15-5.418,5.16-5.418s5.074,2.235,5.074,5.418c0,3.096-1.979,5.418-5.16,5.418
			C259.646,307.871,257.581,305.549,257.581,302.453z"/>
		<path fill="#535454" d="M283.552,305.635v-46.44c0-0.572-0.201-1.045-0.602-1.419c-0.402-0.372-0.89-0.559-1.462-0.559h-4.902
			c-0.287,0-0.546-0.114-0.774-0.344c-0.229-0.229-0.344-0.517-0.344-0.86v-7.998c0-0.344,0.115-0.63,0.344-0.859
			c0.229-0.229,0.487-0.345,0.774-0.345h37.582c0.286,0,0.544,0.116,0.774,0.345c0.229,0.229,0.344,0.516,0.344,0.859v7.998
			c0,0.344-0.115,0.632-0.344,0.86c-0.23,0.229-0.488,0.344-0.774,0.344h-16.082c-0.573,0-1.062,0.201-1.462,0.602
			c-0.402,0.402-0.602,0.86-0.602,1.376v46.44c0,0.344-0.115,0.617-0.344,0.817c-0.23,0.201-0.488,0.301-0.774,0.301H284.67
			C283.925,306.753,283.552,306.381,283.552,305.635z"/>
		<path fill="#535454" d="M326.896,302.453c0-3.183,2.15-5.418,5.16-5.418s5.074,2.235,5.074,5.418c0,3.096-1.979,5.418-5.16,5.418
			C328.96,307.871,326.896,305.549,326.896,302.453z"/>
	</g>
	<g id="logo">
		<path fill="#00585F" d="M131.986,77.083h10.113v56.021l23.408,23.433v66.603c-3.205,0-6.411-0.471-9.639-0.919v-61.557
			l-23.882-23.412V77.083z"/>
		<polygon fill="#00585F" points="210.988,223.139 210.988,149.652 234.87,126.218 234.87,74.328 234.87,70.649 244.515,70.649 
			244.515,75.246 244.515,130.367 221.078,154.249 221.078,221.748 		"/>
		<path fill="#00585F" d="M183.428,117.966h10.113v106.092c-1.837,0.449-3.679,0.449-5.517,0.449c-1.391,0-3.228,0-4.597-0.449
			V117.966z"/>
		<path fill="#00585F" d="M97.539,108.771l30.318,30.318v77.142c-3.206,0-6.434-0.919-9.64-2.287v-70.729l-24.354-24.33
			l-3.207-3.229L97.539,108.771z"/>
		<path fill="#00585F" d="M279.426,116.127l6.861,6.885l-3.68,3.679l-23.858,23.881v63.373c-3.229,0.92-6.883,1.839-10.111,2.286
			v-69.808l27.108-27.089L279.426,116.127z"/>
		<path fill="#00585F" d="M222.915,57.33c0,7.803,4.597,14.711,11.955,16.998c1.837,0.918,4.124,1.368,5.966,1.368
			c1.368,0,2.286,0,3.679-0.45c8.27-1.837,14.686-9.194,14.686-17.916c0-10.095-8.254-18.365-18.364-18.365
			C230.723,38.965,222.915,47.235,222.915,57.33 M250.946,57.33c0,5.516-4.596,10.559-10.11,10.559
			c-5.516,0-10.113-5.043-10.113-10.559c0-5.497,4.598-10.095,10.113-10.095C246.351,47.235,250.946,51.833,250.946,57.33"/>
		<path fill="#00585F" d="M170.105,103.255c0,8.275,5.52,15.631,13.322,17.469c1.837,0.449,3.205,0.897,5.043,0.897
			c1.842,0,3.233-0.448,5.07-0.897c7.803-1.838,13.318-9.193,13.318-17.469c0-10.093-8.271-18.364-18.389-18.364
			C178.38,84.891,170.105,93.162,170.105,103.255 M198.588,103.255c0,5.517-4.597,10.563-10.117,10.563
			c-5.493,0-10.559-5.047-10.559-10.563c0-5.496,5.065-10.093,10.559-10.093C193.991,93.162,198.588,97.759,198.588,103.255"/>
		<path fill="#00585F" d="M284.941,173.535h8.703v26.169c-2.738,1.839-5.967,3.207-8.703,4.126V173.535z"/>
		<path fill="#00585F" d="M276.646,162.502c0,5.517,3.229,10.563,8.295,11.952c0.449,0.448,0.449,0.448,0.9,0.448
			c1.387,0,2.287,0.472,3.674,0.472c1.391,0,2.287-0.472,3.232-0.472c0.445,0,0.445,0,0.896-0.448
			c5.066-1.39,8.744-6.436,8.744-11.952c0-7.333-5.967-12.85-12.873-12.85C282.162,149.652,276.646,155.169,276.646,162.502
			 M296.422,162.502c0,4.148-3.229,7.355-6.906,7.355c-4.125,0-7.354-3.207-7.354-7.355c0-4.126,3.229-7.333,7.354-7.333
			C293.193,155.169,296.422,158.376,296.422,162.502"/>
		<path fill="#00585F" d="M90.767,212.891v-39.558h-8.432v31.889C84.959,207.867,87.874,210.514,90.767,212.891"/>
		<path fill="#00585F" d="M73.657,162.502c0,5.517,3.229,10.113,8.724,11.952c0,0,0.47,0.448,0.918,0.448
			c0.92,0.472,1.839,0.472,3.23,0.472c1.368,0,2.287,0,3.207-0.472c0.471,0,0.919-0.448,0.919-0.448
			c5.045-1.839,8.723-6.436,8.723-11.952c0-7.333-5.516-12.85-12.849-12.85C79.644,149.652,73.657,155.169,73.657,162.502
			 M93.862,162.502c0,4.148-3.207,7.355-7.333,7.355c-4.148,0-7.355-3.207-7.355-7.355c0-4.126,3.207-7.333,7.355-7.333
			C90.655,155.169,93.862,158.376,93.862,162.502"/>
		<path fill="#00585F" d="M117.744,64.684c0,9.194,5.989,16.528,14.242,17.92c1.386,0,2.755,0.445,4.147,0.445
			c1.837,0,4.124-0.445,5.965-0.918c6.885-2.761,11.928-9.172,11.928-17.447c0-10.113-8.249-17.916-17.893-17.916
			C126.02,46.768,117.744,54.57,117.744,64.684 M146.223,64.684c0,5.966-5.043,10.563-10.09,10.563
			c-5.989,0-10.563-4.597-10.563-10.563c0-5.517,4.574-10.113,10.563-10.113C141.18,54.57,146.223,59.167,146.223,64.684"/>
		<path fill="#00585F" d="M65.854,103.726c0,10.092,8.274,17.896,18.365,17.896c3.678,0,6.907-0.897,9.643-2.735
			c2.758-1.839,5.068-4.597,6.436-7.355c1.39-2.288,1.839-5.046,1.839-7.805c0-10.113-7.804-18.366-17.918-18.366
			C74.127,85.359,65.854,93.612,65.854,103.726 M94.333,103.726c0,5.517-4.597,10.092-10.114,10.092
			c-5.965,0-10.563-4.575-10.563-10.092c0-5.967,4.597-10.563,10.563-10.563C89.735,93.162,94.333,97.759,94.333,103.726"/>
		<path fill="#00585F" d="M273.461,111.059c0,2.759,0.898,5.988,2.285,8.275c1.346,3.207,4.129,5.517,6.861,7.355
			c2.783,1.367,5.967,2.758,9.195,2.758c10.096,0,18.389-8.274,18.389-18.389c0-10.091-8.293-18.365-18.389-18.365
			C281.713,92.693,273.461,100.968,273.461,111.059 M301.898,111.059c0,5.517-4.576,10.114-10.096,10.114
			c-5.961,0-10.09-4.598-10.09-10.114c0-5.494,4.129-10.563,10.09-10.563C297.322,100.495,301.898,105.564,301.898,111.059"/>
	</g>
</g>
<g id="brand_x5F_2_x5F_white">
	<g id="logo_copy_2">
	</g>
</g>
</svg>
