<?xml version="1.0" encoding="utf-8"?>
<!-- Generator: Adobe Illustrator 19.0.0, SVG Export Plug-In . SVG Version: 6.00 Build 0)  -->
<svg version="1.1" id="Layer_1" xmlns="http://www.w3.org/2000/svg" xmlns:xlink="http://www.w3.org/1999/xlink" x="0px" y="0px"
	 viewBox="-643.4 983.4 1311 250.1" style="enable-background:new -643.4 983.4 1311 250.1;" xml:space="preserve">
<style type="text/css">
	.st0{fill:#12B981;}
</style>
<polygon id="XMLID_12250_" class="st0" points="-383.4,983.4 -493.1,1167.4 -582.4,1018.4 -494.2,1018.4 -516.4,1055.1 
	-496.4,1088.4 -433.3,983.4 -643.4,983.4 -493.4,1233.5 -343.4,983.4 "/>
<g>
	<path class="st0" d="M-147.6,1054.5c-6.1-6.1-13.4-10.9-22-14.4c-8.2-3.3-16.9-5-26.2-5c-9.8,0-18.4,1.7-25.9,5.2
		c-7.2,3.3-12,7.5-14.4,12.6v-14.5h-32.2v185h33.3v-63.9c2.4,5.1,7.2,9.3,14.1,12.6c7.3,3.5,15.8,5.2,25.4,5.2
		c8.7,0,17.3-1.7,25.7-5.2c8-3.3,15.3-8.2,21.7-14.7c6.3-6.3,11.3-13.8,14.9-22.5c3.7-8.6,5.5-18.2,5.5-28.8c0-10.5-1.3-20.3-5-29.1
		C-136.4,1068.3-141.3,1060.7-147.6,1054.5z M-164.1,1120.7c-1.9,4.5-4.5,8.4-7.9,11.5c-3.1,3-7.2,5.4-12.3,7.3
		c-4.5,1.7-9.8,2.6-15.7,2.6c-8.4,0-15.8-1.7-22.3-5s-10.7-7.5-12.8-12.6v-35.9c2.1-5.1,6.4-9.3,12.8-12.6c6.5-3.3,13.9-5,22.3-5
		c5.9,0,11.2,0.9,15.7,2.6c5.1,1.9,9.2,4.4,12.3,7.3c3.5,3.1,6.1,6.9,7.9,11.3c1.9,4.6,2.8,9.3,2.9,14
		C-161.3,1111.4-162.3,1116.1-164.1,1120.7z"/>
	<rect x="-101.4" y="993.4" class="st0" width="33.3" height="179.4"/>
	<path class="st0" d="M59.9,1048.4c-5.2-4.4-11.5-7.8-18.9-10.2c-7.7-2.4-15.8-3.7-24.4-3.7c-5.2,0-10.5,0.5-15.7,1.6
		c-5.4,1-10.3,2.6-14.7,4.7s-8.5,4.6-12.3,7.6s-6.9,6.4-9.2,10.2h0.3l8.1,27.2c3.8-4.9,9.3-9.1,16.2-12.6c6.6-3.3,14.3-5,23-5
		c10,0,17.5,2.4,22.8,7.1c5.2,4.7,7.9,11,7.9,18.9v3.7c-1.7-2.3-5.4-4.5-11-6.5c-5.6-2.1-12.7-3.1-21.2-3.1c-6.5,0-13,1-19.6,2.9
		c-6.3,1.7-12,4.5-17,8.4c-4.9,3.7-8.8,8.3-11.8,13.9s-4.5,11.9-4.5,18.9c0,6.6,1.2,12.8,3.7,18.6c2.4,5.6,5.8,10.2,10.2,13.9
		c4.5,3.7,9.8,6.5,15.7,8.6s12.5,3.1,19.6,3.1c7.2,0,14.3-1.3,21.5-3.9c7-2.6,12.2-6.5,15.7-11.5v12.2h32.2v-85.2
		c0-8.4-1.5-16.1-4.5-23C69.4,1058.6,65.3,1053,59.9,1048.4z M43.4,1134.6c-1.6,3.1-4.7,5.8-9.4,7.9s-10.1,3.1-16.2,3.1
		c-8.6,0-15-1.3-19.4-3.9c-4.5-2.6-6.8-6.2-6.8-10.7s2.2-8.2,6.5-11c4.4-2.8,10.9-4.2,19.6-4.2c5.9,0,11.3,1,16.2,2.9s7.9,4,9.2,6.3
		h0.3L43.4,1134.6L43.4,1134.6z"/>
	<path class="st0" d="M493.5,1055.2c-6.6-6.3-14.2-11.3-22.8-14.9c-8.6-3.7-17.7-5.5-27.5-5.5s-18.9,1.8-27.5,5.5
		s-16.2,8.6-22.8,14.9c-6.5,6.3-11.7,13.8-15.7,22.5c-3.8,8.4-5.8,17.8-5.8,28.3s1.9,19.9,5.8,28.3c4,8.7,9.3,16.2,15.7,22.5
		c6.6,6.3,14.2,11.3,22.8,14.9c8.6,3.7,17.7,5.5,27.5,5.5s18.9-1.8,27.5-5.5s16.1-8.6,22.8-14.9c6.6-6.3,11.9-13.7,15.7-22.3
		c3.8-8.4,5.8-17.8,5.8-28.3v-0.3c0-10.5-1.9-19.9-5.8-28.3C505.2,1069,500,1061.5,493.5,1055.2z M478.3,1121.2
		c-2.1,4.4-4.8,8.1-8.1,11.3c-3.3,3-7.2,5.4-11.8,7.3c-4.2,1.7-9.1,2.6-14.7,2.6c-5.4,0-10.4-0.9-14.9-2.6c-4.7-1.9-8.7-4.4-12-7.3
		c-3.5-3.1-6.1-6.9-7.9-11.3c-1.9-4.7-2.9-9.5-2.9-14.4v-0.5c0-4.9,1-9.7,2.9-14.4c1.7-4.4,4.4-8.1,7.9-11.3c3.3-3,7.3-5.4,12-7.3
		c4.5-1.7,9.5-2.6,14.9-2.6c5.6,0,10.5,0.9,14.7,2.6c4.5,1.9,8.5,4.4,11.8,7.3c3.1,3,5.8,6.8,8.1,11.5c2.1,4.5,3.1,9.4,3.1,14.7
		C481.5,1111.9,480.4,1116.7,478.3,1121.2z"/>
	<polygon class="st0" points="606.8,1102.1 652.9,1038.5 612,1038.5 586.1,1074.6 560.1,1038.5 520.3,1038.5 566.4,1102.1 
		515.1,1173.4 555.7,1173.4 587.1,1129.6 618.5,1173.4 658.1,1173.4 	"/>
	<path class="st0" d="M297.1,1125.7l-34.8-87.2h-29l0,0h-36.9l-35.4,83.8l-35.4-83.8H89.7l54,126.5c0,0,0.4,0.2-5.8,13.5
		c-11.7,25.3-33.2,20.3-43,17v32.1c4.6,1.4,13.2,3,22.4,3c25.6,0,44.7-23.4,54.6-46.9c38.5-90.9,52.8-124.9,58.2-137.6l52.3,127.3
		h30.4l55.5-134.9h-36.4L297.1,1125.7z"/>
</g>
</svg>
