<?xml version="1.0" encoding="utf-8"?>
<!-- Generator: Adobe Illustrator 23.0.0, SVG Export Plug-In . SVG Version: 6.00 Build 0)  -->
<svg version="1.1" id="Capa_1" xmlns="http://www.w3.org/2000/svg" xmlns:xlink="http://www.w3.org/1999/xlink" x="0px" y="0px"
	 viewBox="0 0 566 201" style="enable-background:new 0 0 566 201;" xml:space="preserve">
<style type="text/css">
	.st0{fill:#FFFFFF;}
	.st1{fill:#464646;}
</style>
<g>
	<g>
		<path class="st0" d="M560.98,4.35v174.14H426.01v11.36c0,3.65-2.97,6.62-6.62,6.62H145.51c-3.65,0-6.62-2.97-6.62-6.62v-11.36H4.5
			V4.35H560.98z"/>
		<path class="st1" d="M419.39,201.2H145.51c-6.26,0-11.36-5.09-11.36-11.36v-6.62H-0.23V-0.39h565.95v183.6H430.74v6.62
			C430.74,196.1,425.65,201.2,419.39,201.2z M9.23,173.75h134.39v16.09c0,1.04,0.85,1.89,1.89,1.89h273.88
			c1.04,0,1.89-0.85,1.89-1.89v-16.09h134.97V9.08H9.23V173.75z"/>
	</g>
	<g>
		<rect x="29.04" y="144.41" class="st1" width="115.26" height="9.46"/>
	</g>
	<g>
		<path class="st1" d="M166.29,174.79v-34.6c0-1.79,1.37-3.13,3.16-3.13h10.69c3.35,0,6.45,1.31,8.74,3.51
			c2.26,2.2,3.57,5.27,3.57,8.59c0,3.35-1.31,6.35-3.57,8.52c-2.27,2.2-5.39,3.48-8.74,3.48h-7.5v13.63c0,1.79-1.4,3.13-3.19,3.13
			S166.29,176.58,166.29,174.79z M180.17,154.82c1.56,0,3.1-0.64,4.21-1.76c1.12-1.05,1.72-2.52,1.72-4.05c0-1.53-0.64-3-1.75-4.02
			c-1.12-1.02-2.59-1.63-4.21-1.63h-7.5v11.46H180.17z"/>
		<path class="st1" d="M206.31,177.92c-1.69-0.13-2.94-1.4-2.94-3.16v-34.5c0-0.89,0.32-1.66,0.92-2.27
			c0.61-0.61,1.37-0.93,2.27-0.93h17.04c0.86,0,1.63,0.32,2.23,0.93c0.61,0.61,0.89,1.34,0.89,2.27c0,1.79-1.34,3.16-3.13,3.16
			h-13.88v11.04h10.02c0.89-0.03,1.66,0.26,2.27,0.86c0.61,0.61,0.89,1.34,0.89,2.27c0,1.79-1.37,3.06-3.16,3.06h-10.02v10.95h13.88
			c1.79,0,3.13,1.4,3.13,3.19c0,0.89-0.29,1.63-0.89,2.23c-0.61,0.61-1.37,0.92-2.23,0.89H206.31z"/>
		<path class="st1" d="M237.6,174.79v-34.6c0-1.79,1.37-3.13,3.16-3.13h10.69c3.35,0,6.45,1.31,8.74,3.51
			c2.26,2.2,3.57,5.27,3.57,8.59c0,2.58-0.83,5.07-2.27,7.02c-1.43,1.95-3.51,3.48-5.81,4.28l7.56,12.77
			c0.29,0.48,0.45,0.99,0.45,1.5c0,0.29-0.06,0.61-0.16,0.93c-0.29,0.86-0.8,1.5-1.56,1.88c-0.48,0.26-0.96,0.38-1.5,0.38
			c-0.32,0-0.61-0.03-0.86-0.13c-0.86-0.26-1.47-0.73-1.88-1.47l-8.9-15.16h-4.88v13.63c0,1.79-1.4,3.13-3.19,3.13
			C238.97,177.92,237.6,176.58,237.6,174.79z M251.48,154.82c1.56,0,3.1-0.64,4.21-1.76c1.12-1.05,1.72-2.52,1.72-4.05
			c0-1.53-0.64-3-1.75-4.02c-1.12-1.02-2.59-1.63-4.21-1.63h-7.5v11.46H251.48z"/>
		<path class="st1" d="M278.67,177.92c-1.69-0.13-2.94-1.4-2.94-3.16v-34.5c0-0.89,0.32-1.66,0.92-2.27
			c0.61-0.61,1.37-0.93,2.27-0.93h17.04c0.86,0,1.63,0.32,2.23,0.93c0.61,0.61,0.89,1.34,0.89,2.27c0,1.79-1.34,3.16-3.13,3.16
			h-13.88v11.04h10.02c0.89-0.03,1.66,0.26,2.27,0.86c0.61,0.61,0.89,1.34,0.89,2.27c0,1.79-1.37,3.06-3.16,3.06h-10.02v10.95h13.88
			c1.79,0,3.13,1.4,3.13,3.19c0,0.89-0.29,1.63-0.89,2.23c-0.61,0.61-1.37,0.92-2.23,0.89H278.67z"/>
		<path class="st1" d="M309.96,174.79v-34.6c0-1.79,1.37-3.13,3.16-3.13s3.19,1.34,3.19,3.13v34.6c0,1.79-1.4,3.13-3.19,3.13
			S309.96,176.58,309.96,174.79z"/>
		<path class="st1" d="M329.72,174.79v-34.6c0-1.79,1.37-3.13,3.16-3.13h10.69c3.35,0,6.45,1.31,8.74,3.51
			c2.26,2.2,3.57,5.27,3.57,8.59c0,2.58-0.83,5.07-2.27,7.02c-1.43,1.95-3.51,3.48-5.81,4.28l7.56,12.77
			c0.29,0.48,0.45,0.99,0.45,1.5c0,0.29-0.06,0.61-0.16,0.93c-0.29,0.86-0.8,1.5-1.56,1.88c-0.48,0.26-0.96,0.38-1.5,0.38
			c-0.32,0-0.61-0.03-0.86-0.13c-0.86-0.26-1.47-0.73-1.88-1.47l-8.9-15.16h-4.88v13.63c0,1.79-1.4,3.13-3.19,3.13
			C331.09,177.92,329.72,176.58,329.72,174.79z M343.6,154.82c1.56,0,3.1-0.64,4.21-1.76c1.12-1.05,1.72-2.52,1.72-4.05
			c0-1.53-0.64-3-1.75-4.02c-1.12-1.02-2.59-1.63-4.21-1.63h-7.5v11.46H343.6z"/>
		<path class="st1" d="M394.57,176.04l-3.99-9.48H374.4l-3.93,9.45c-0.35,0.86-0.92,1.4-1.75,1.69c-0.42,0.16-0.8,0.22-1.15,0.22
			c-0.48,0-0.93-0.1-1.37-0.29c-1.15-0.51-1.79-1.53-1.79-2.71c0-0.54,0.1-1.02,0.32-1.47l14.97-34.44c0.54-1.24,1.6-1.95,2.9-1.95
			c1.28,0,2.36,0.67,2.87,1.91l14.81,34.47c0.22,0.45,0.32,0.93,0.32,1.47c0,1.18-0.64,2.2-1.76,2.71
			c-0.41,0.19-0.86,0.29-1.34,0.29c-0.38,0-0.77-0.06-1.12-0.19C395.59,177.44,394.98,176.87,394.57,176.04z M387.9,160.21
			l-5.46-12.99l-5.39,12.99H387.9z"/>
	</g>
	<g>
		<path class="st1" d="M87.81,29.68c23.41,0,36.89,11.51,36.89,31.92c0,21.45-13.47,33.88-36.89,33.88H71.19v25.77H47.91V29.68
			H87.81z M71.19,77.16h15.43c10.2,0,16.09-5.1,16.09-14.78c0-9.55-5.89-14.39-16.09-14.39H71.19V77.16z"/>
		<path class="st1" d="M190.61,121.24h-23.15V92.33l-33.88-62.66h23.28l22.11,39.9l21.58-39.9h23.28l-33.22,62V121.24z"/>
		<path class="st1" d="M278.25,29.68c28.78,0,48.66,18.57,48.66,45.78c0,27.08-20.14,45.78-49.58,45.78h-38.46V29.68H278.25z
			 M262.16,102.67h16.61c14.26,0,24.46-10.99,24.46-27.08c0-16.22-10.73-27.34-25.51-27.34h-15.57V102.67z"/>
		<path class="st1" d="M364.05,104.37l-6.67,16.87h-23.94l39.5-91.56h23.94l38.59,91.56h-24.85l-6.54-16.87H364.05z M384.19,52.83
			l-13.34,33.88h26.42L384.19,52.83z"/>
		<path class="st1" d="M490.67,121.24h-23.15V92.33l-33.88-62.66h23.28l22.11,39.9l21.58-39.9h23.28l-33.22,62V121.24z"/>
	</g>
	<g>
		<rect x="421.04" y="144.41" class="st1" width="115.26" height="9.46"/>
	</g>
</g>
<g>
</g>
<g>
</g>
<g>
</g>
<g>
</g>
<g>
</g>
<g>
</g>
<g>
</g>
<g>
</g>
<g>
</g>
<g>
</g>
<g>
</g>
<g>
</g>
<g>
</g>
<g>
</g>
<g>
</g>
</svg>
